<?xml version="1.0" encoding="UTF-8" standalone="no"?>
<!DOCTYPE svg PUBLIC "-//W3C//DTD SVG 1.1//EN" "http://www.w3.org/Graphics/SVG/1.1/DTD/svg11.dtd">
<svg version="1.1" xmlns="http://www.w3.org/2000/svg" xmlns:xlink="http://www.w3.org/1999/xlink" preserveAspectRatio="xMidYMid meet" viewBox="0 0 640 640" width="640" height="640"><defs><path d="M418.76 421.9C418.76 532.36 372.13 622.03 314.69 622.03C257.26 622.03 210.63 532.36 210.63 421.9C210.63 311.45 257.26 285.82 314.69 285.82C372.13 285.82 418.76 311.45 418.76 421.9Z" id="aNj98maE5"></path><path d="M387.35 72.73C387.35 98.14 338.01 105.7 313.39 105.7C288.77 105.7 242.03 98.14 242.03 72.73C242.03 47.32 288.77 17.97 313.39 17.97C338.01 17.97 387.35 47.32 387.35 72.73Z" id="ald4740eR"></path><path d="M406.75 197.76C406.75 255.2 372.13 285.82 314.69 285.82C257.26 285.82 222.63 255.2 222.63 197.76C222.63 140.32 257.26 105.7 314.69 105.7C372.13 105.7 406.75 140.32 406.75 197.76Z" id="h2mOx040yT"></path><path d="M406.75 340.09C375.01 363.53 343.28 375.26 311.54 375.26C279.8 375.26 250.16 363.53 222.63 340.09" id="d8irHqE5KR"></path><path d="M412.86 382.09C378.1 407.83 345.38 420.71 314.69 420.71C284.01 420.71 251.53 409.35 217.25 386.64" id="cPiYQjIu"></path><path d="M412.86 433.43C378.1 456.88 345.38 468.6 314.69 468.6C284.01 468.6 251.53 456.88 217.25 433.43" id="a54IctJ3H"></path><path d="M412.91 475.42C378.08 495.15 345.33 504.96 314.64 504.85C283.95 504.74 251.51 494.7 217.3 474.72" id="ajScIHCkb"></path><path d="M399.48 515.28C370.73 535.13 341.99 545.06 313.24 545.06C284.49 545.06 255.74 535.13 227 515.28" id="aT9EGJPf"></path><path d="M382.5 571.17C371.63 581.76 351.5 587.06 322.1 587.06C292.71 587.06 268.6 581.76 249.8 571.17" id="a32GIo99IX"></path><path d="M22.88 499.04C52 523.54 138.87 468.28 216.76 375.72C294.65 283.16 334.24 188.12 305.13 163.62C276.02 139.12 189.14 194.38 111.26 286.94C33.37 379.51 -6.23 474.55 22.88 499.04Z" id="a1Rj1PnvyS"></path><path d="M624.32 499.04C595.21 523.54 508.34 468.28 430.45 375.72C352.56 283.16 312.96 188.12 342.08 163.62C371.19 139.12 458.06 194.38 535.95 286.94C613.84 379.51 653.44 474.55 624.32 499.04Z" id="b2oQPOEevZ"></path><path d="M293.91 61.87C285.57 73.85 274.79 80.78 269.85 77.33C264.9 73.89 267.65 61.37 275.98 49.4C284.31 37.42 295.09 30.49 300.04 33.93C304.99 37.37 302.24 49.89 293.91 61.87Z" id="bdJVy0IMA"></path><path d="M330.59 61.87C338.93 73.85 349.71 80.78 354.65 77.33C359.6 73.89 356.85 61.37 348.52 49.4C340.19 37.42 329.41 30.49 324.46 33.93C319.51 37.37 322.26 49.89 330.59 61.87Z" id="b1hCOgjRBZ"></path></defs><g><g><g><use xlink:href="#aNj98maE5" opacity="1" fill="#f6e800" fill-opacity="1"></use><g><use xlink:href="#aNj98maE5" opacity="1" fill-opacity="0" stroke="#000000" stroke-width="3" stroke-opacity="1"></use></g></g><g><use xlink:href="#ald4740eR" opacity="1" fill="#b6b72d" fill-opacity="1"></use><g><use xlink:href="#ald4740eR" opacity="1" fill-opacity="0" stroke="#000000" stroke-width="2" stroke-opacity="1"></use></g></g><g><use xlink:href="#h2mOx040yT" opacity="1" fill="#a6a72f" fill-opacity="1"></use><g><use xlink:href="#h2mOx040yT" opacity="1" fill-opacity="0" stroke="#000804" stroke-width="2" stroke-opacity="1"></use></g></g><g><g><use xlink:href="#d8irHqE5KR" opacity="1" fill-opacity="0" stroke="#000000" stroke-width="5" stroke-opacity="1"></use></g></g><g><g><use xlink:href="#cPiYQjIu" opacity="1" fill-opacity="0" stroke="#000000" stroke-width="5" stroke-opacity="1"></use></g></g><g><g><use xlink:href="#a54IctJ3H" opacity="1" fill-opacity="0" stroke="#000000" stroke-width="5" stroke-opacity="1"></use></g></g><g><g><use xlink:href="#ajScIHCkb" opacity="1" fill-opacity="0" stroke="#000000" stroke-width="5" stroke-opacity="1"></use></g></g><g><g><use xlink:href="#aT9EGJPf" opacity="1" fill-opacity="0" stroke="#000000" stroke-width="5" stroke-opacity="1"></use></g></g><g><g><use xlink:href="#a32GIo99IX" opacity="1" fill-opacity="0" stroke="#000000" stroke-width="5" stroke-opacity="1"></use></g></g><g><use xlink:href="#a1Rj1PnvyS" opacity="1" fill="#4e8299" fill-opacity="0.54"></use><g><use xlink:href="#a1Rj1PnvyS" opacity="1" fill-opacity="0" stroke="#162366" stroke-width="2" stroke-opacity="0.62"></use></g></g><g><use xlink:href="#b2oQPOEevZ" opacity="1" fill="#4e8299" fill-opacity="0.54"></use><g><use xlink:href="#b2oQPOEevZ" opacity="1" fill-opacity="0" stroke="#4e618e" stroke-width="2" stroke-opacity="1"></use></g></g><g><use xlink:href="#bdJVy0IMA" opacity="1" fill="#000000" fill-opacity="1"></use></g><g><use xlink:href="#b1hCOgjRBZ" opacity="1" fill="#000000" fill-opacity="1"></use></g></g></g></svg>