<?xml version="1.0" encoding="UTF-8" standalone="no"?>
<!DOCTYPE svg PUBLIC "-//W3C//DTD SVG 1.1//EN" "http://www.w3.org/Graphics/SVG/1.1/DTD/svg11.dtd">
<svg version="1.1" xmlns="http://www.w3.org/2000/svg" xmlns:xlink="http://www.w3.org/1999/xlink" preserveAspectRatio="xMidYMid meet" viewBox="0 0 640 640" width="640" height="640"><defs><path d="M418.76 421.9C418.76 532.36 372.13 622.03 314.69 622.03C257.26 622.03 210.63 532.36 210.63 421.9C210.63 311.45 257.26 285.82 314.69 285.82C372.13 285.82 418.76 311.45 418.76 421.9Z" id="jD6WPsC8W"></path><path d="M388.81 72.73C388.81 98.14 339.47 105.7 314.84 105.7C290.22 105.7 243.49 98.14 243.49 72.73C243.49 47.32 290.22 17.97 314.84 17.97C339.47 17.97 388.81 47.32 388.81 72.73Z" id="eipQBybn1"></path><path d="M406.75 197.76C406.75 255.2 372.13 285.82 314.69 285.82C257.26 285.82 222.63 255.2 222.63 197.76C222.63 140.32 257.26 105.7 314.69 105.7C372.13 105.7 406.75 140.32 406.75 197.76Z" id="c3WoNPa1Rk"></path><path d="M406.75 340.09C375.01 359.94 343.28 369.87 311.54 369.87C279.8 369.87 250.16 359.94 222.63 340.09" id="c23spju0sf"></path><path d="M412.86 382.09C378.1 405.54 345.38 417.26 314.69 417.26C284.01 417.26 251.53 406.92 217.25 386.24" id="duXMHBQJ7"></path><path d="M412.86 433.43C378.1 456.88 345.38 468.6 314.69 468.6C284.01 468.6 251.53 456.88 217.25 433.43" id="b4sQxGw4ax"></path><path d="M412.91 475.42C378.08 495.15 345.33 504.96 314.64 504.85C283.95 504.74 251.51 494.7 217.3 474.72" id="g6hW76J7e"></path><path d="M399.48 515.28C370.73 535.13 341.99 545.06 313.24 545.06C284.49 545.06 255.74 535.13 227 515.28" id="d6wtCsCRL"></path><path d="M382.5 571.17C371.63 581.76 351.5 587.06 322.1 587.06C292.71 587.06 268.6 581.76 249.8 571.17" id="gateHZ83p"></path><path d="M22.88 499.04C52 523.54 138.87 468.28 216.76 375.72C294.65 283.16 334.24 188.12 305.13 163.62C276.02 139.12 189.14 194.38 111.26 286.94C33.37 379.51 -6.23 474.55 22.88 499.04Z" id="a8jQuRqqa"></path><path d="M624.32 499.04C595.21 523.54 508.34 468.28 430.45 375.72C352.56 283.16 312.96 188.12 342.08 163.62C371.19 139.12 458.06 194.38 535.95 286.94C613.84 379.51 653.44 474.55 624.32 499.04Z" id="jiXui2HzJ"></path></defs><g><g><g><use xlink:href="#jD6WPsC8W" opacity="1" fill="#f6e800" fill-opacity="1"></use></g><g><use xlink:href="#eipQBybn1" opacity="1" fill="#b6b72d" fill-opacity="1"></use></g><g><use xlink:href="#c3WoNPa1Rk" opacity="1" fill="#a6a72f" fill-opacity="1"></use></g><g><g><use xlink:href="#c23spju0sf" opacity="1" fill-opacity="0" stroke="#000000" stroke-width="3" stroke-opacity="1"></use></g></g><g><g><use xlink:href="#duXMHBQJ7" opacity="1" fill-opacity="0" stroke="#000000" stroke-width="3" stroke-opacity="1"></use></g></g><g><g><use xlink:href="#b4sQxGw4ax" opacity="1" fill-opacity="0" stroke="#000000" stroke-width="3" stroke-opacity="1"></use></g></g><g><g><use xlink:href="#g6hW76J7e" opacity="1" fill-opacity="0" stroke="#000000" stroke-width="3" stroke-opacity="1"></use></g></g><g><g><use xlink:href="#d6wtCsCRL" opacity="1" fill-opacity="0" stroke="#000000" stroke-width="3" stroke-opacity="1"></use></g></g><g><g><use xlink:href="#gateHZ83p" opacity="1" fill-opacity="0" stroke="#000000" stroke-width="3" stroke-opacity="1"></use></g></g><g><use xlink:href="#a8jQuRqqa" opacity="1" fill="#4e8299" fill-opacity="0.54"></use><g><use xlink:href="#a8jQuRqqa" opacity="1" fill-opacity="0" stroke="#000000" stroke-width="1" stroke-opacity="0.62"></use></g></g><g><use xlink:href="#jiXui2HzJ" opacity="1" fill="#4e8299" fill-opacity="0.54"></use><g><use xlink:href="#jiXui2HzJ" opacity="1" fill-opacity="0" stroke="#000000" stroke-width="1" stroke-opacity="0.62"></use></g></g></g></g></svg>