<?xml version="1.0" encoding="UTF-8" standalone="no"?>
<!DOCTYPE svg PUBLIC "-//W3C//DTD SVG 1.1//EN" "http://www.w3.org/Graphics/SVG/1.1/DTD/svg11.dtd">
<svg version="1.1" xmlns="http://www.w3.org/2000/svg" xmlns:xlink="http://www.w3.org/1999/xlink" preserveAspectRatio="xMidYMid meet" viewBox="0 0 640 640" width="640" height="640"><defs><path d="M311.07 201.73L299.05 151.78L270.76 128.85" id="f2TCMn3RPO"></path><path d="M144.6 176.28L146.86 176.32L149.09 176.39L151.29 176.46L153.46 176.55L155.59 176.66L157.69 176.77L159.75 176.9L161.78 177.03L163.76 177.17L165.7 177.31L167.6 177.45L169.45 177.6L171.26 177.74L173.02 177.89L174.73 178.03L176.39 178.16L177.99 178.29L179.54 178.4L181.04 178.51L182.48 178.61L183.86 178.69L185.18 178.76L186.44 178.81L187.63 178.84L188.76 178.85L193.89 179.02L198.99 179.52L204.07 180.34L209.12 181.48L214.14 182.91L219.1 184.62L224.02 186.62L228.89 188.87L233.69 191.38L238.43 194.13L243.1 197.11L247.69 200.31L252.2 203.72L256.62 207.32L260.94 211.11L265.17 215.07L269.29 219.19L273.29 223.46L277.18 227.87L280.95 232.41L284.59 237.06L288.09 241.82L291.46 246.68L294.68 251.61L297.75 256.62L300.66 261.68L303.41 266.8L305.99 271.95L308.4 277.12L310.63 282.31L312.67 287.5L314.52 292.69L316.18 297.85L317.63 302.98L318.88 308.07L319.91 313.1L320.72 318.07L321.31 322.97L321.34 323.46L321.78 325.34L322.34 328.01L322.82 330.64L323.22 333.24L323.55 335.8L323.82 338.34L324.01 340.85L324.14 343.33L324.2 345.79L324.21 348.23L324.15 350.65L324.03 353.06L323.85 355.44L323.62 357.82L323.34 360.18L323 362.54L322.61 364.88L322.18 367.22L321.7 369.56L321.18 371.9L320.61 374.23L320 376.57L319.36 378.92L318.67 381.27L317.96 383.62L317.2 385.99L316.42 388.38L315.61 390.77L314.77 393.18L313.9 395.61L313.01 398.07L312.1 400.54L311.17 403.04L310.22 405.56L309.25 408.11L308.27 410.7L307.27 413.31L306.27 415.96L305.25 418.65L304.23 421.37L303.2 424.14L301.13 429.47L298.94 434.64L296.63 439.65L294.21 444.49L291.67 449.18L289.03 453.69L286.29 458.03L283.44 462.21L280.51 466.21L277.48 470.03L274.37 473.67L271.19 477.14L267.92 480.42L264.58 483.51L261.18 486.42L257.72 489.14L254.19 491.67L250.61 494L246.99 496.14L243.31 498.08L239.6 499.82L235.85 501.36L232.07 502.69L228.26 503.81L224.43 504.73L220.58 505.44L216.71 505.93L212.84 506.21L208.96 506.26L205.08 506.1L201.2 505.72L197.33 505.11L193.47 504.28L189.63 503.21L185.81 501.92L182.01 500.39L178.24 498.63L174.51 496.63L170.82 494.39L167.17 491.91L163.54 489.32L159.93 486.75L156.33 484.19L152.76 481.63L149.22 479.09L145.72 476.54L142.27 473.99L138.87 471.42L135.53 468.85L132.25 466.25L129.05 463.63L125.92 460.98L122.89 458.3L119.94 455.58L117.1 452.82L114.36 450.01L111.74 447.15L109.23 444.24L106.86 441.26L104.61 438.22L102.51 435.11L100.56 431.92L98.76 428.66L97.12 425.3L95.65 421.87L94.35 418.33L93.24 414.7L92.31 410.97L91.58 407.13L91.05 403.18L90.73 399.11L90.63 394.92L90.75 390.6L91.09 386.16L91.68 381.57L91.88 380.4L91.53 380.15L88.63 377.85L85.88 375.44L83.28 372.89L80.83 370.21L78.54 367.4L76.41 364.46L74.44 361.38L72.64 358.16L71.01 354.8L69.56 351.3L68.29 347.65L67.2 343.86L66.31 339.91L65.6 335.81L65.09 331.56L64.78 327.15L64.68 322.58L64.66 321.65L64.59 320.72L64.49 319.79L64.34 318.84L64.15 317.89L63.92 316.94L63.65 315.98L63.34 315.02L63 314.05L62.62 313.07L62.21 312.1L61.76 311.11L61.28 310.13L60.77 309.14L60.23 308.14L59.66 307.14L59.06 306.14L58.43 305.14L57.78 304.13L57.1 303.12L56.4 302.11L55.67 301.09L54.92 300.07L54.14 299.05L53.35 298.03L52.53 297.01L51.7 295.98L50.85 294.96L49.98 293.93L49.1 292.9L48.2 291.87L47.29 290.84L46.36 289.81L45.42 288.78L44.47 287.75L43.51 286.72L42.55 285.69L41.57 284.66L40.59 283.63L39.6 282.6L38.01 280.94L36.41 279.25L34.8 277.54L33.19 275.8L31.59 274.03L29.99 272.25L28.41 270.44L26.84 268.63L25.29 266.8L23.76 264.96L22.25 263.11L20.78 261.26L19.35 259.4L17.95 257.54L16.59 255.69L15.28 253.84L14.03 252L12.83 250.17L11.68 248.35L10.6 246.55L9.59 244.76L8.65 243L7.78 241.25L6.99 239.53L6.28 237.84L5.66 236.18L5.14 234.55L4.7 232.96L4.37 231.4L4.14 229.89L4.01 228.41L4 226.98L4.1 225.6L4.32 224.27L4.67 223L5.14 221.77L5.74 220.61L6.47 219.5L7.35 218.46L8.37 217.48L9.36 216.66L10.48 215.8L11.7 214.9L13.04 213.98L14.49 213.03L16.04 212.05L17.69 211.06L19.44 210.04L21.29 209L23.23 207.94L25.25 206.87L27.36 205.78L29.56 204.69L31.83 203.59L34.18 202.48L36.6 201.36L39.09 200.25L41.65 199.13L44.27 198.02L46.95 196.91L49.69 195.8L52.48 194.71L55.32 193.62L58.21 192.55L61.14 191.49L64.12 190.45L67.13 189.43L70.17 188.43L73.25 187.45L76.35 186.5L79.48 185.58L82.63 184.68L85.8 183.82L88.98 182.99L92.18 182.2L95.38 181.44L98.59 180.73L101.8 180.06L105.01 179.43L108.22 178.85L110.73 178.43L113.24 178.06L115.74 177.72L118.23 177.43L120.72 177.17L123.18 176.95L125.64 176.76L128.08 176.6L130.5 176.48L132.91 176.38L135.29 176.31L137.65 176.27L139.99 176.25L142.31 176.26L144.6 176.28Z" id="jrarDkcN1"></path><path d="M506.4 176.38L508.8 176.48L511.22 176.6L513.66 176.76L516.12 176.95L518.59 177.17L521.07 177.43L523.56 177.72L526.06 178.06L528.57 178.43L531.08 178.85L534.29 179.43L537.5 180.06L540.71 180.73L543.92 181.44L547.13 182.2L550.32 182.99L553.51 183.82L556.67 184.68L559.82 185.58L562.95 186.5L566.06 187.45L569.13 188.43L572.18 189.43L575.19 190.45L578.16 191.49L581.09 192.55L583.98 193.62L586.82 194.71L589.61 195.8L592.35 196.91L595.03 198.02L597.65 199.13L600.21 200.25L602.7 201.36L605.12 202.48L607.47 203.59L609.74 204.69L611.94 205.78L614.05 206.87L616.08 207.94L618.01 209L619.86 210.04L621.61 211.06L623.26 212.05L624.81 213.03L626.26 213.98L627.6 214.9L628.83 215.8L629.94 216.66L630.93 217.48L631.95 218.46L632.83 219.5L633.56 220.61L634.17 221.77L634.64 223L634.98 224.27L635.2 225.6L635.3 226.98L635.29 228.41L635.16 229.89L634.93 231.4L634.6 232.96L634.17 234.55L633.64 236.18L633.02 237.84L632.31 239.53L631.52 241.25L630.66 243L629.71 244.76L628.7 246.55L627.62 248.35L626.48 250.17L625.27 252L624.02 253.84L622.71 255.69L621.35 257.54L619.96 259.4L618.52 261.26L617.05 263.11L615.55 264.96L614.02 266.8L612.47 268.63L610.89 270.44L609.31 272.25L607.71 274.03L606.11 275.8L604.5 277.54L602.9 279.25L601.3 280.94L599.71 282.6L598.72 283.63L597.73 284.66L596.76 285.69L595.79 286.72L594.83 287.75L593.88 288.78L592.94 289.81L592.02 290.84L591.1 291.87L590.2 292.9L589.32 293.93L588.45 294.96L587.6 295.98L586.77 297.01L585.95 298.03L585.16 299.05L584.39 300.07L583.64 301.09L582.91 302.11L582.2 303.12L581.52 304.13L580.87 305.14L580.24 306.14L579.64 307.14L579.07 308.14L578.53 309.14L578.02 310.13L577.54 311.11L577.09 312.1L576.68 313.07L576.3 314.05L575.96 315.02L575.65 315.98L575.39 316.94L575.16 317.89L574.97 318.84L574.82 319.79L574.71 320.72L574.64 321.65L574.62 322.58L574.52 327.15L574.21 331.56L573.7 335.81L573 339.91L572.1 343.86L571.01 347.65L569.74 351.3L568.29 354.8L566.66 358.16L564.86 361.38L562.9 364.46L560.76 367.4L558.47 370.21L556.02 372.89L553.42 375.44L550.67 377.85L547.77 380.15L547.42 380.4L547.63 381.57L548.21 386.16L548.56 390.6L548.67 394.92L548.57 399.11L548.25 403.18L547.72 407.13L546.99 410.97L546.06 414.7L544.95 418.33L543.65 421.87L542.18 425.3L540.54 428.66L538.74 431.92L536.79 435.11L534.69 438.22L532.45 441.26L530.07 444.24L527.57 447.15L524.94 450.01L522.2 452.82L519.36 455.58L516.42 458.3L513.38 460.98L510.25 463.63L507.05 466.25L503.77 468.85L500.43 471.42L497.03 473.99L493.58 476.54L490.08 479.09L486.54 481.63L482.97 484.19L479.38 486.75L475.76 489.32L472.14 491.91L468.49 494.39L464.79 496.63L461.06 498.63L457.29 500.39L453.5 501.92L449.67 503.21L445.83 504.28L441.97 505.11L438.1 505.72L434.23 506.1L430.34 506.26L426.46 506.21L422.59 505.93L418.72 505.44L414.87 504.73L411.04 503.81L407.23 502.69L403.45 501.36L399.7 499.82L395.99 498.08L392.32 496.14L388.69 494L385.11 491.67L381.59 489.14L378.12 486.42L374.72 483.51L371.38 480.42L368.12 477.14L364.93 473.67L361.82 470.03L358.79 466.21L355.86 462.21L353.02 458.03L350.27 453.69L347.63 449.18L345.09 444.49L342.67 439.65L340.36 434.64L338.17 429.47L336.1 424.14L335.08 421.37L334.05 418.65L333.04 415.96L332.03 413.31L331.03 410.7L330.05 408.11L329.08 405.56L328.13 403.04L327.2 400.54L326.29 398.07L325.4 395.61L324.53 393.18L323.69 390.77L322.88 388.38L322.1 385.99L321.35 383.62L320.63 381.27L319.95 378.92L319.3 376.57L318.69 374.23L318.13 371.9L317.6 369.56L317.12 367.22L316.69 364.88L316.3 362.54L315.97 360.18L315.68 357.82L315.45 355.44L315.27 353.06L315.16 350.65L315.1 348.23L315.1 345.79L315.16 343.33L315.29 340.85L315.49 338.34L315.75 335.8L316.08 333.24L316.49 330.64L316.97 328.01L317.52 325.34L317.96 323.46L318 322.97L318.58 318.07L319.4 313.1L320.43 308.07L321.67 302.98L323.13 297.85L324.78 292.69L326.63 287.5L328.68 282.31L330.9 277.12L333.31 271.95L335.89 266.8L338.64 261.68L341.55 256.62L344.62 251.61L347.84 246.68L351.21 241.82L354.71 237.06L358.35 232.41L362.12 227.87L366.01 223.46L370.02 219.19L374.14 215.07L378.36 211.11L382.68 207.32L387.1 203.72L391.61 200.31L396.2 197.11L400.87 194.13L405.61 191.38L410.41 188.87L415.28 186.62L420.2 184.62L425.17 182.91L430.18 181.48L435.23 180.34L440.31 179.52L445.42 179.02L450.54 178.85L451.67 178.84L452.87 178.81L454.12 178.76L455.44 178.69L456.82 178.61L458.26 178.51L459.76 178.4L461.31 178.29L462.92 178.16L464.57 178.03L466.28 177.89L468.04 177.74L469.85 177.6L471.7 177.45L473.6 177.31L475.54 177.17L477.52 177.03L479.55 176.9L481.61 176.77L483.71 176.66L485.84 176.55L488.01 176.46L490.21 176.39L492.44 176.32L494.7 176.28L496.99 176.26L499.31 176.25L501.65 176.27L504.01 176.31L504.01 176.31L506.4 176.38Z" id="a6JPZzdMA3"></path><path d="M319.13 201.73L331.15 151.78L359.43 128.85" id="a5xsbygsoB"></path><path d="M339.28 325.26C339.28 393.44 328.56 448.79 315.36 448.79C302.16 448.79 291.44 393.44 291.44 325.26C291.44 257.09 302.16 201.73 315.36 201.73C328.56 201.73 339.28 257.09 339.28 325.26Z" id="aWxg4Hql7"></path><path d="M192.58 384.93C192.58 410.81 175.15 431.82 153.69 431.82C132.22 431.82 114.79 410.81 114.79 384.93C114.79 359.06 132.22 338.05 153.69 338.05C175.15 338.05 192.58 359.06 192.58 384.93Z" id="nEiXpW76"></path><path d="M250.83 452.81C250.83 468.72 240.11 481.65 226.91 481.65C213.71 481.65 202.99 468.72 202.99 452.81C202.99 436.89 213.71 423.97 226.91 423.97C240.11 423.97 250.83 436.89 250.83 452.81Z" id="d1ZZ0JZxkI"></path><path d="M126.08 282.79C126.08 296.54 116.82 307.7 105.42 307.7C94.01 307.7 84.76 296.54 84.76 282.79C84.76 269.04 94.01 257.88 105.42 257.88C116.82 257.88 126.08 269.04 126.08 282.79Z" id="a9sRYD9p0"></path><path d="M514.09 372.15C514.09 346.27 496.66 325.26 475.2 325.26C453.73 325.26 436.31 346.27 436.31 372.15C436.31 398.03 453.73 419.04 475.2 419.04C496.66 419.04 514.09 398.03 514.09 372.15Z" id="b2kky4U1ls"></path><path d="M436.31 456.73C436.31 442.99 427.05 431.82 415.65 431.82C404.24 431.82 394.98 442.99 394.98 456.73C394.98 470.48 404.24 481.65 415.65 481.65C427.05 481.65 436.31 470.48 436.31 456.73Z" id="d11EX2BmSf"></path><path d="M555.42 257.88C555.42 271.63 546.16 282.79 534.75 282.79C523.35 282.79 514.09 271.63 514.09 257.88C514.09 244.13 523.35 232.96 534.75 232.96C546.16 232.96 555.42 244.13 555.42 257.88Z" id="d43MdS10e"></path></defs><g><g><g><g><use xlink:href="#f2TCMn3RPO" opacity="1" fill-opacity="0" stroke="#193e24" stroke-width="1" stroke-opacity="1"></use></g></g><g><use xlink:href="#jrarDkcN1" opacity="1" fill="#a88c62" fill-opacity="1"></use><g><use xlink:href="#jrarDkcN1" opacity="1" fill-opacity="0" stroke="#2a0b47" stroke-width="4" stroke-opacity="1"></use></g></g><g><use xlink:href="#a6JPZzdMA3" opacity="1" fill="#a88c62" fill-opacity="1"></use><g><use xlink:href="#a6JPZzdMA3" opacity="1" fill-opacity="0" stroke="#2a0b47" stroke-width="4" stroke-opacity="1"></use></g></g><g><g><use xlink:href="#a5xsbygsoB" opacity="1" fill-opacity="0" stroke="#193e24" stroke-width="1" stroke-opacity="1"></use></g></g><g><use xlink:href="#aWxg4Hql7" opacity="1" fill="#635318" fill-opacity="1"></use><g><use xlink:href="#aWxg4Hql7" opacity="1" fill-opacity="0" stroke="#57460a" stroke-width="3" stroke-opacity="1"></use></g></g><g><use xlink:href="#nEiXpW76" opacity="1" fill="#444c5d" fill-opacity="1"></use><g><use xlink:href="#nEiXpW76" opacity="1" fill-opacity="0" stroke="#cf9a0a" stroke-width="8" stroke-opacity="1"></use></g></g><g><use xlink:href="#d1ZZ0JZxkI" opacity="1" fill="#444c5d" fill-opacity="1"></use><g><use xlink:href="#d1ZZ0JZxkI" opacity="1" fill-opacity="0" stroke="#cf9a0a" stroke-width="4" stroke-opacity="1"></use></g></g><g><use xlink:href="#a9sRYD9p0" opacity="1" fill="#444c5d" fill-opacity="1"></use><g><use xlink:href="#a9sRYD9p0" opacity="1" fill-opacity="0" stroke="#cf9a0a" stroke-width="4" stroke-opacity="1"></use></g></g><g><use xlink:href="#b2kky4U1ls" opacity="1" fill="#444c5d" fill-opacity="1"></use><g><use xlink:href="#b2kky4U1ls" opacity="1" fill-opacity="0" stroke="#cf9a0a" stroke-width="8" stroke-opacity="1"></use></g></g><g><use xlink:href="#d11EX2BmSf" opacity="1" fill="#444c5d" fill-opacity="1"></use><g><use xlink:href="#d11EX2BmSf" opacity="1" fill-opacity="0" stroke="#cf9a0a" stroke-width="4" stroke-opacity="1"></use></g></g><g><use xlink:href="#d43MdS10e" opacity="1" fill="#444c5d" fill-opacity="1"></use><g><use xlink:href="#d43MdS10e" opacity="1" fill-opacity="0" stroke="#cf9a0a" stroke-width="4" stroke-opacity="1"></use></g></g></g></g></svg>