<?xml version="1.0" encoding="UTF-8" standalone="no"?>
<!DOCTYPE svg PUBLIC "-//W3C//DTD SVG 1.1//EN" "http://www.w3.org/Graphics/SVG/1.1/DTD/svg11.dtd">
<svg version="1.1" xmlns="http://www.w3.org/2000/svg" xmlns:xlink="http://www.w3.org/1999/xlink" preserveAspectRatio="xMidYMid meet" viewBox="0 0 640 640" width="640" height="640"><defs><path d="M349.18 188.62C394.02 188.62 430.39 226 430.39 272.11C430.39 273.85 430.34 275.58 430.23 277.29C462.62 284.3 486.44 307.78 486.44 335.68C486.44 335.68 486.44 335.68 486.44 335.68C486.44 369.11 452.24 396.21 410.05 396.21C390.89 396.21 237.61 396.21 218.45 396.21C176.27 396.21 142.07 369.11 142.07 335.68C142.07 335.68 142.07 335.68 142.07 335.68C142.07 306.53 168.06 282.2 202.67 276.45C205.78 244.85 231.72 220.19 263.27 220.19C270.21 220.19 276.86 221.38 283.07 223.57C297.82 202.41 321.93 188.62 349.18 188.62Z" id="g1708OyrKI"></path></defs><g><g><g><use xlink:href="#g1708OyrKI" opacity="1" fill="#ffffff" fill-opacity="1"></use></g></g></g></svg>