<?xml version="1.0" encoding="UTF-8" standalone="no"?>
<!DOCTYPE svg PUBLIC "-//W3C//DTD SVG 1.1//EN" "http://www.w3.org/Graphics/SVG/1.1/DTD/svg11.dtd">
<svg version="1.1" xmlns="http://www.w3.org/2000/svg" xmlns:xlink="http://www.w3.org/1999/xlink" preserveAspectRatio="xMidYMid meet" viewBox="0 0 640 640" width="640" height="640"><defs><path d="M329.04 20.27C331.62 18.63 335.13 18.45 337.49 18.11C351.5 16.1 361.2 20.96 361.2 38.06C361.2 61.65 342.74 62.13 320 62.13C297.26 62.13 278.8 61.65 278.8 38.06C278.8 24.85 291.14 17.52 300.22 18.11C303.69 18.33 308.58 18.44 311.28 20.27C314.14 22.22 314.85 25.88 320 25.88C323.47 25.88 325.82 22.32 329.04 20.27Z" id="c4EYioVJs"></path><path d="M333.71 23.47C333.71 29.9 327.57 32.58 320 32.58C312.43 32.58 306.29 29.9 306.29 23.47C306.29 17.03 312.43 11.81 320 11.81C327.57 11.81 333.71 17.03 333.71 23.47Z" id="b1GyaZii16"></path><path d="M348.02 140.54C348.02 183.82 335.46 218.96 320 218.96C304.54 218.96 291.98 183.82 291.98 140.54C291.98 97.27 304.54 62.13 320 62.13C335.46 62.13 348.02 97.27 348.02 140.54Z" id="ciDOueYzk"></path><path d="M320 310C320 310.42 320 310.77 320 310.77C320 310.77 320 310.42 320 310C320 309.58 320 309.24 320 309.24C320 309.39 320 309.58 320 310Z" id="e2XcMTrGt3"></path><path d="M340.51 406.75C340.51 526.81 331.77 624.29 321 624.29C310.23 624.29 301.49 526.81 301.49 406.75C301.49 286.69 310.23 189.22 321 189.22C331.77 189.22 340.51 286.69 340.51 406.75Z" id="c2LUvurHY"></path><path d="M635.7 53.08C637.68 67.65 573.69 88.4 492.9 99.37C412.11 110.34 344.91 107.42 342.93 92.84C340.95 78.27 404.93 57.52 485.73 46.55C566.52 35.58 633.72 38.5 635.7 53.08Z" id="d3i5yysJYg"></path><path d="M635.7 162.18C637.68 147.6 573.69 126.86 492.9 115.89C412.11 104.91 344.91 107.84 342.93 122.41C340.95 136.99 404.93 157.73 485.73 168.71C566.52 179.68 633.72 176.75 635.7 162.18Z" id="a156XaDB2p"></path><path d="M4.3 54.69C2.32 69.27 66.31 90.01 147.1 100.99C227.89 111.96 295.09 109.03 297.07 94.46C299.05 79.88 235.07 59.14 154.27 48.17C73.48 37.19 6.28 40.12 4.3 54.69Z" id="g3uGq9Ev5u"></path><path d="M4.3 163.79C2.32 149.22 66.31 128.47 147.1 117.5C227.89 106.53 295.09 109.45 297.07 124.03C299.05 138.6 235.07 159.35 154.27 170.32C73.48 181.29 6.28 178.37 4.3 163.79Z" id="h4TCVPhMN"></path></defs><g><g><g><use xlink:href="#c4EYioVJs" opacity="1" fill="#7a890d" fill-opacity="1"></use></g><g><use xlink:href="#b1GyaZii16" opacity="1" fill="#95814b" fill-opacity="1"></use></g><g><use xlink:href="#ciDOueYzk" opacity="1" fill="#7a890d" fill-opacity="1"></use></g><g><use xlink:href="#e2XcMTrGt3" opacity="1" fill="#2f8d33" fill-opacity="1"></use></g><g><use xlink:href="#c2LUvurHY" opacity="1" fill="#7a890d" fill-opacity="1"></use></g><g><use xlink:href="#d3i5yysJYg" opacity="1" fill="#65908f" fill-opacity="0.38"></use><g><use xlink:href="#d3i5yysJYg" opacity="1" fill-opacity="0" stroke="#000000" stroke-width="1" stroke-opacity="1"></use></g></g><g><use xlink:href="#a156XaDB2p" opacity="1" fill="#65908f" fill-opacity="0.38"></use><g><use xlink:href="#a156XaDB2p" opacity="1" fill-opacity="0" stroke="#000000" stroke-width="1" stroke-opacity="1"></use></g></g><g><use xlink:href="#g3uGq9Ev5u" opacity="1" fill="#65908f" fill-opacity="0.38"></use><g><use xlink:href="#g3uGq9Ev5u" opacity="1" fill-opacity="0" stroke="#000000" stroke-width="1" stroke-opacity="1"></use></g></g><g><use xlink:href="#h4TCVPhMN" opacity="1" fill="#65908f" fill-opacity="0.38"></use><g><use xlink:href="#h4TCVPhMN" opacity="1" fill-opacity="0" stroke="#000000" stroke-width="1" stroke-opacity="1"></use></g></g></g></g></svg>