<?xml version="1.0" encoding="UTF-8" standalone="no"?>
<!DOCTYPE svg PUBLIC "-//W3C//DTD SVG 1.1//EN" "http://www.w3.org/Graphics/SVG/1.1/DTD/svg11.dtd">
<svg version="1.1" xmlns="http://www.w3.org/2000/svg" xmlns:xlink="http://www.w3.org/1999/xlink" preserveAspectRatio="xMidYMid meet" viewBox="0 0 640 640" width="640" height="640"><defs><path d="M364.01 197.67C364.01 224.35 347.04 246 326.14 246C305.24 246 288.27 224.35 288.27 197.67C288.27 171 305.24 149.35 326.14 149.35C347.04 149.35 364.01 171 364.01 197.67Z" id="c63CSnH0u"></path><path d="M205.43 634.66L197.61 519.5L205.43 425.94L275.76 346.76" id="aYOtxZPUL"></path><path d="M117.57 310.08L130 319.64L176.4 320.77L224.21 321.94" id="f2ald2J2VH"></path><path d="M580.36 284.92L563.15 296.41L495.82 304.88L426.45 313.61" id="bbgJQdRva"></path><path d="M442.33 634.66L450.55 519.5L442.33 425.94L368.3 346.76" id="dSMUZSBJG"></path><path d="M275.76 -0.77L220.23 65.04L197.61 171.97L257.25 231.61" id="cTGrsToA"></path><path d="M368.3 6.07L392.97 27.26L415.59 145.55L384.75 222.35" id="d1gi4X8Ka"></path><path d="M427.93 303C427.93 378.75 382.32 457.81 326.14 457.81C269.96 457.81 224.35 378.75 224.35 303C224.35 227.26 269.96 198.7 326.14 198.7C382.32 198.7 427.93 227.26 427.93 303Z" id="aR1MKQntZ"></path><path d="M303.4 340.92C319.15 351.88 316.56 360.99 316.56 373.83C316.56 399.25 328.82 405.49 303.4 405.49C277.97 405.49 274.61 399.25 274.61 373.83C274.61 348.4 249.18 303.09 274.61 303.09C287.19 303.09 287.95 330.19 303.4 340.92Z" id="c2jQdRdWpB"></path><path d="M345.64 340.92C329.89 351.88 332.48 360.99 332.48 373.83C332.48 399.25 320.22 405.49 345.64 405.49C371.06 405.49 374.43 399.25 374.43 373.83C374.43 348.4 399.85 303.09 374.43 303.09C361.85 303.09 361.08 330.19 345.64 340.92Z" id="a1gXWz4vRm"></path><path d="M341.11 251.47C325.35 257.37 327.94 262.27 327.94 269.18C327.94 282.86 315.68 286.22 341.11 286.22C366.53 286.22 369.89 282.86 369.89 269.18C369.89 255.5 395.32 231.11 369.89 231.11C357.31 231.11 356.55 245.7 341.11 251.47Z" id="gD7TysZ7r"></path><path d="M308.87 251.47C324.62 257.37 322.03 262.27 322.03 269.18C322.03 282.86 334.29 286.22 308.87 286.22C283.45 286.22 280.08 282.86 280.08 269.18C280.08 255.5 254.66 231.11 280.08 231.11C292.67 231.11 293.43 245.7 308.87 251.47Z" id="a4yrt08v2k"></path><path d="M140.03 167.86L140.03 190.48L154.43 222.35L170.89 246L197.61 246L230.52 254.23" id="alYw7jvjz"></path><path d="M506.08 159.63L506.08 182.25L491.68 214.13L475.22 237.77L448.5 237.77L415.59 246" id="b4l4LVylbb"></path><path d="M339.18 322.74C339.18 379.83 332.82 426.18 324.99 426.18C317.16 426.18 310.8 379.83 310.8 322.74C310.8 265.65 317.16 219.31 324.99 219.31C332.82 219.31 339.18 265.65 339.18 322.74Z" id="a225MfzkY"></path></defs><g><g><g><use xlink:href="#c63CSnH0u" opacity="1" fill="#c8a770" fill-opacity="1"></use></g><g><g><use xlink:href="#aYOtxZPUL" opacity="1" fill-opacity="0" stroke="#876812" stroke-width="10" stroke-opacity="1"></use></g></g><g><g><use xlink:href="#f2ald2J2VH" opacity="1" fill-opacity="0" stroke="#876812" stroke-width="10" stroke-opacity="1"></use></g></g><g><g><use xlink:href="#bbgJQdRva" opacity="1" fill-opacity="0" stroke="#876812" stroke-width="10" stroke-opacity="1"></use></g></g><g><g><use xlink:href="#dSMUZSBJG" opacity="1" fill-opacity="0" stroke="#876812" stroke-width="10" stroke-opacity="1"></use></g></g><g><g><use xlink:href="#cTGrsToA" opacity="1" fill-opacity="0" stroke="#876812" stroke-width="10" stroke-opacity="1"></use></g></g><g><g><use xlink:href="#d1gi4X8Ka" opacity="1" fill-opacity="0" stroke="#876812" stroke-width="10" stroke-opacity="1"></use></g></g><g><use xlink:href="#aR1MKQntZ" opacity="1" fill="#ffc420" fill-opacity="1"></use><g><use xlink:href="#aR1MKQntZ" opacity="1" fill-opacity="0" stroke="#5a3c1a" stroke-width="5" stroke-opacity="1"></use></g></g><g><use xlink:href="#c2jQdRdWpB" opacity="1" fill="#cb9601" fill-opacity="1"></use></g><g><use xlink:href="#a1gXWz4vRm" opacity="1" fill="#cb9601" fill-opacity="1"></use></g><g><use xlink:href="#gD7TysZ7r" opacity="1" fill="#cb9601" fill-opacity="1"></use></g><g><use xlink:href="#a4yrt08v2k" opacity="1" fill="#cb9601" fill-opacity="1"></use></g><g><g><use xlink:href="#alYw7jvjz" opacity="1" fill-opacity="0" stroke="#876812" stroke-width="10" stroke-opacity="1"></use></g></g><g><g><use xlink:href="#b4l4LVylbb" opacity="1" fill-opacity="0" stroke="#876812" stroke-width="10" stroke-opacity="1"></use></g></g><g><use xlink:href="#a225MfzkY" opacity="1" fill="#ffdc7d" fill-opacity="1"></use></g></g></g></svg>