<?xml version="1.0" encoding="UTF-8" standalone="no"?>
<!DOCTYPE svg PUBLIC "-//W3C//DTD SVG 1.1//EN" "http://www.w3.org/Graphics/SVG/1.1/DTD/svg11.dtd">
<svg version="1.1" xmlns="http://www.w3.org/2000/svg" xmlns:xlink="http://www.w3.org/1999/xlink" preserveAspectRatio="xMidYMid meet" viewBox="0 0 640 640" width="640" height="640"><defs><path d="M135.42 442.34L131.38 638.84L139.2 638.85L147.02 638.85L144.03 483.49L143.24 442.35L127.67 245.83L135.42 442.34Z" id="e1ybLYLiIS"></path><path d="M265.82 386.41L261.79 642.75L269.61 642.75L277.42 642.76L274.43 440.09L273.64 386.41L258.07 130.06L265.82 386.41Z" id="aqUTwC8f5"></path><path d="M385.48 361.01L372.13 638.72L364.32 638.36L356.52 638L373.24 418.72L377.67 360.65L410.6 83.84L385.48 361.01Z" id="aimLQqjm7"></path><path d="M408.88 396.68L413.93 638.84L404.14 638.85L394.35 638.85L398.1 447.39L399.09 396.69L370.18 150.44L408.88 396.68Z" id="a1VubRAuA"></path><path d="M502.19 442.34L498.15 638.84L505.97 638.85L513.79 638.85L510.8 483.49L510.01 442.35L494.44 245.83L502.19 442.34Z" id="a3oWAEiyoy"></path><path d="M573.39 386.41L569.35 642.75L577.17 642.75L584.99 642.76L582 440.09L581.21 386.41L565.64 130.06L573.39 386.41Z" id="baSRNZVX"></path></defs><g><g><g><use xlink:href="#e1ybLYLiIS" opacity="1" fill="#13c606" fill-opacity="1"></use></g><g><use xlink:href="#aqUTwC8f5" opacity="1" fill="#13c606" fill-opacity="1"></use></g><g><use xlink:href="#aimLQqjm7" opacity="1" fill="#13c606" fill-opacity="1"></use></g><g><use xlink:href="#a1VubRAuA" opacity="1" fill="#13c606" fill-opacity="1"></use></g><g><use xlink:href="#a3oWAEiyoy" opacity="1" fill="#13c606" fill-opacity="1"></use></g><g><use xlink:href="#baSRNZVX" opacity="1" fill="#13c606" fill-opacity="1"></use></g></g></g></svg>