<?xml version="1.0" encoding="UTF-8" standalone="no"?>
<!DOCTYPE svg PUBLIC "-//W3C//DTD SVG 1.1//EN" "http://www.w3.org/Graphics/SVG/1.1/DTD/svg11.dtd">
<svg version="1.1" xmlns="http://www.w3.org/2000/svg" xmlns:xlink="http://www.w3.org/1999/xlink" preserveAspectRatio="xMidYMid meet" viewBox="0 0 640 640" width="640" height="640"><defs><path d="M45.19 405.03L50.05 638.85L40.32 638.85L30.59 638.85L34.43 453.98L34.43 405.03L54.99 171.21L45.19 405.03Z" id="f2iVG13LiA"></path><path d="M80.79 359.2L85.66 638.85L75.92 638.85L66.19 638.85L70.04 417.75L71.05 359.2L90.59 79.54L80.79 359.2Z" id="b2onsifAaR"></path><path d="M123.94 396.68L127.67 638.84L120.52 638.85L113.37 638.85L116.08 447.39L116.79 396.69L95.63 150.44L123.94 396.68Z" id="cJjFLGCjV"></path><path d="M194.62 442.34L190.58 638.84L198.4 638.85L206.22 638.85L203.23 483.49L202.44 442.35L186.87 245.83L194.62 442.34Z" id="bkB16vF5g"></path><path d="M175.32 408.65L179.04 638.84L171.89 638.85L164.74 638.85L167.45 456.85L168.17 408.65L147.02 174.58L175.32 408.65Z" id="byiQJCSoV"></path><path d="M246.52 342.46L250.24 642.75L243.1 642.75L235.95 642.76L238.66 405.34L239.37 342.46L218.22 37.11L246.52 342.46Z" id="f3RCEpBtQ"></path><path d="M304.33 478.84L309.28 638.84L299.54 638.85L289.81 638.85L293.59 512.35L294.6 478.85L314.05 318.83L304.33 478.84Z" id="b42wYcahaN"></path><path d="M352.76 405.03L357.62 638.85L347.89 638.85L338.16 638.85L342 453.98L342 405.03L362.56 171.21L352.76 405.03Z" id="a12el9feyQ"></path><path d="M442.98 442.34L438.95 638.84L446.77 638.85L454.59 638.85L451.6 483.49L450.8 442.35L435.24 245.83L442.98 442.34Z" id="aC9mkTdP8"></path><path d="M480.84 346.6L475.28 638.85L486.76 638.85L498.25 638.84L493.56 407.78L492.32 346.59L525.87 49.38L480.84 346.6Z" id="b2cYFcW9MH"></path><path d="M554.13 425.61L557.81 642.75L550.66 642.75L543.52 642.76L546.26 471.07L546.98 425.61L525.87 204.81L554.13 425.61Z" id="ac5FbWae1"></path><path d="M611.9 478.84L616.84 638.84L607.11 638.85L597.38 638.85L601.16 512.35L602.17 478.85L621.62 318.83L611.9 478.84Z" id="e3yxVTIEll"></path></defs><g><g><g><use xlink:href="#f2iVG13LiA" opacity="1" fill="#13c606" fill-opacity="1"></use></g><g><use xlink:href="#b2onsifAaR" opacity="1" fill="#13c606" fill-opacity="1"></use></g><g><use xlink:href="#cJjFLGCjV" opacity="1" fill="#13c606" fill-opacity="1"></use></g><g><use xlink:href="#bkB16vF5g" opacity="1" fill="#13c606" fill-opacity="1"></use></g><g><use xlink:href="#byiQJCSoV" opacity="1" fill="#13c606" fill-opacity="1"></use></g><g><use xlink:href="#f3RCEpBtQ" opacity="1" fill="#13c606" fill-opacity="1"></use></g><g><use xlink:href="#b42wYcahaN" opacity="1" fill="#13c606" fill-opacity="1"></use></g><g><use xlink:href="#a12el9feyQ" opacity="1" fill="#13c606" fill-opacity="1"></use></g><g><use xlink:href="#aC9mkTdP8" opacity="1" fill="#13c606" fill-opacity="1"></use></g><g><use xlink:href="#b2cYFcW9MH" opacity="1" fill="#13c606" fill-opacity="1"></use></g><g><use xlink:href="#ac5FbWae1" opacity="1" fill="#13c606" fill-opacity="1"></use></g><g><use xlink:href="#e3yxVTIEll" opacity="1" fill="#13c606" fill-opacity="1"></use></g></g></g></svg>