<?xml version="1.0" encoding="UTF-8" standalone="no"?>
<!DOCTYPE svg PUBLIC "-//W3C//DTD SVG 1.1//EN" "http://www.w3.org/Graphics/SVG/1.1/DTD/svg11.dtd">
<svg version="1.1" xmlns="http://www.w3.org/2000/svg" xmlns:xlink="http://www.w3.org/1999/xlink" preserveAspectRatio="xMidYMid meet" viewBox="0 0 640 640" width="640" height="640"><defs><path d="M370.1 113.36C370.1 138.5 349.7 158.9 324.56 158.9C299.43 158.9 279.03 138.5 279.03 113.36C279.03 88.23 299.43 67.82 324.56 67.82C349.7 67.82 370.1 88.23 370.1 113.36Z" id="a3IdNr3GSE"></path><path d="M404.67 152.66C404.67 183.77 367.29 209.04 321.25 209.04C275.2 209.04 237.82 183.77 237.82 152.66C237.82 121.54 275.2 96.28 321.25 96.28C367.29 96.28 404.67 121.54 404.67 152.66Z" id="dIv14kpuV"></path><path d="M329.9 246.51L378.29 294.48" id="i9Oie1xqH"></path><path d="M471.9 250.11L423.51 298.08" id="cKH4M3PbY"></path><path d="M434.83 294.13C434.83 309.35 421.32 321.71 404.67 321.71C388.03 321.71 374.51 309.35 374.51 294.13C374.51 278.91 388.03 266.55 404.67 266.55C421.32 266.55 434.83 278.91 434.83 294.13Z" id="a2UncfxvOl"></path><path d="M477.32 329.56C477.32 351.11 444.77 368.6 404.67 368.6C364.58 368.6 332.03 351.11 332.03 329.56C332.03 308.02 364.58 290.53 404.67 290.53C444.77 290.53 477.32 308.02 477.32 329.56Z" id="a3NSExkB1f"></path><path d="M533.39 378.27C533.39 513.51 439.14 623.31 323.05 623.31C206.95 623.31 112.7 513.51 112.7 378.27C112.7 243.03 206.95 133.23 323.05 133.23C439.14 133.23 533.39 243.03 533.39 378.27Z" id="b18IxmnJn"></path><path d="M268.18 249.33C268.18 272.07 249.72 290.53 226.98 290.53C204.24 290.53 185.78 272.07 185.78 249.33C185.78 226.59 204.24 208.13 226.98 208.13C249.72 208.13 268.18 226.59 268.18 249.33Z" id="g77NYmPb5L"></path><path d="M278.16 399.65C257.88 409.95 233.06 401.84 222.77 381.57C212.47 361.29 220.58 336.47 240.85 326.18C261.13 315.88 285.95 323.99 296.24 344.27C306.54 364.54 298.43 389.36 278.16 399.65Z" id="c2CN1g8378"></path><path d="M279.03 484.09C279.03 506.83 260.56 525.29 237.82 525.29C215.08 525.29 196.62 506.83 196.62 484.09C196.62 461.35 215.08 442.89 237.82 442.89C260.56 442.89 279.03 461.35 279.03 484.09Z" id="b3GHu997uV"></path><path d="M446 484.09C446 506.83 427.54 525.29 404.8 525.29C382.06 525.29 363.6 506.83 363.6 484.09C363.6 461.35 382.06 442.89 404.8 442.89C427.54 442.89 446 461.35 446 484.09Z" id="k1pJmK8Ubb"></path><path d="M436.89 362.91C436.89 385.65 418.43 404.11 395.69 404.11C372.95 404.11 354.49 385.65 354.49 362.91C354.49 340.17 372.95 321.71 395.69 321.71C418.43 321.71 436.89 340.17 436.89 362.91Z" id="b2AmtXTSN"></path><path d="M456.92 249.33C456.92 272.07 438.45 290.53 415.71 290.53C392.97 290.53 374.51 272.07 374.51 249.33C374.51 226.59 392.97 208.13 415.71 208.13C438.45 208.13 456.92 226.59 456.92 249.33Z" id="a6RClBVey"></path><path d="M323.05 623.31L323.05 133.23" id="d6cmIX19L"></path><path d="M363.6 20.46L332.03 76.85" id="a20tpGcs74"></path><path d="M280.46 16.69L312.03 73.07" id="d7AMFPhMlU"></path></defs><g><g><g><use xlink:href="#a3IdNr3GSE" opacity="1" fill="#000000" fill-opacity="1"></use></g><g><use xlink:href="#dIv14kpuV" opacity="1" fill="#000000" fill-opacity="1"></use></g><g><g><use xlink:href="#i9Oie1xqH" opacity="1" fill-opacity="0" stroke="#000000" stroke-width="1" stroke-opacity="1"></use></g></g><g><g><use xlink:href="#cKH4M3PbY" opacity="1" fill-opacity="0" stroke="#000000" stroke-width="1" stroke-opacity="1"></use></g></g><g><use xlink:href="#a2UncfxvOl" opacity="1" fill="#3c233e" fill-opacity="1"></use></g><g><use xlink:href="#a3NSExkB1f" opacity="1" fill="#3c233e" fill-opacity="1"></use></g><g><use xlink:href="#b18IxmnJn" opacity="1" fill="#d71212" fill-opacity="1"></use></g><g><use xlink:href="#g77NYmPb5L" opacity="1" fill="#000000" fill-opacity="1"></use></g><g><use xlink:href="#c2CN1g8378" opacity="1" fill="#000000" fill-opacity="1"></use></g><g><use xlink:href="#b3GHu997uV" opacity="1" fill="#000000" fill-opacity="1"></use></g><g><use xlink:href="#k1pJmK8Ubb" opacity="1" fill="#000000" fill-opacity="1"></use></g><g><use xlink:href="#b2AmtXTSN" opacity="1" fill="#000000" fill-opacity="1"></use></g><g><use xlink:href="#a6RClBVey" opacity="1" fill="#000000" fill-opacity="1"></use></g><g><g><use xlink:href="#d6cmIX19L" opacity="1" fill-opacity="0" stroke="#000000" stroke-width="2" stroke-opacity="1"></use></g></g><g><g><use xlink:href="#a20tpGcs74" opacity="1" fill-opacity="0" stroke="#000000" stroke-width="1" stroke-opacity="1"></use></g></g><g><g><use xlink:href="#d7AMFPhMlU" opacity="1" fill-opacity="0" stroke="#000000" stroke-width="1" stroke-opacity="1"></use></g></g></g></g></svg>