<?xml version="1.0" encoding="UTF-8" standalone="no"?>
<!DOCTYPE svg PUBLIC "-//W3C//DTD SVG 1.1//EN" "http://www.w3.org/Graphics/SVG/1.1/DTD/svg11.dtd">
<svg version="1.1" xmlns="http://www.w3.org/2000/svg" xmlns:xlink="http://www.w3.org/1999/xlink" preserveAspectRatio="xMidYMid meet" viewBox="0 0 640 640" width="640" height="640"><defs><path d="M456.11 596.62L442.36 614.31L469.87 250.71L456.11 236.95L442.36 250.71L374.55 435.46" id="a3CyaOXpah"></path><path d="M355.62 14.86L345.3 119.03" id="a1TVbc9CWn"></path><path d="M199.63 605.52L213.39 623.2L185.87 259.61L199.63 245.85L213.39 259.61L281.19 444.35" id="a1Eiqc6ZqS"></path><path d="M292.12 14.86L302.43 119.03" id="b1jGKs0EJ4"></path><path d="M328.43 111.28L330.58 111.41L332.65 111.59L334.63 111.83L336.52 112.11L338.33 112.44L340.05 112.82L341.7 113.25L343.27 113.72L344.76 114.23L346.17 114.79L347.51 115.39L348.78 116.03L349.98 116.71L351.11 117.43L352.17 118.18L353.17 118.98L354.11 119.81L354.98 120.67L355.8 121.57L356.56 122.5L357.26 123.46L357.9 124.45L358.5 125.47L359.04 126.52L359.53 127.6L359.98 128.7L360.38 129.83L360.74 130.98L361.05 132.15L361.32 133.35L361.56 134.57L361.76 135.81L361.92 137.06L362.05 138.34L362.15 139.63L362.22 140.94L362.25 142.26L362.27 143.6L362.25 144.93L362.22 146.25L362.15 147.56L362.05 148.85L361.92 150.13L361.76 151.39L361.56 152.62L361.32 153.84L361.05 155.04L360.74 156.21L360.38 157.37L359.98 158.49L359.53 159.6L359.04 160.67L358.5 161.72L358.02 162.55L358.61 163.33L359.2 164.16L359.76 165.02L360.28 165.91L360.77 166.81L361.23 167.73L361.65 168.68L362.04 169.64L362.39 170.62L362.7 171.62L362.97 172.64L363.2 173.67L363.39 174.72L363.54 175.78L363.65 176.85L363.72 177.93L363.74 179.03L363.74 253.6L363.72 254.7L363.65 255.78L363.54 256.86L363.39 257.92L363.2 258.96L362.97 259.99L362.7 261.01L362.39 262.01L362.04 262.99L361.65 263.95L361.23 264.9L360.77 265.82L360.28 266.73L359.76 267.61L359.2 268.47L358.61 269.31L357.99 270.12L357.34 270.91L356.66 271.67L355.95 272.4L355.45 272.89L356.36 275.55L357.85 280.27L359.29 285.19L360.68 290.3L362.01 295.6L363.28 301.07L364.5 306.72L365.65 312.54L366.74 318.52L367.77 324.65L368.73 330.93L369.63 337.36L370.46 343.92L371.21 350.61L371.89 357.43L372.5 364.37L373.04 371.43L373.49 378.59L373.87 385.85L374.16 393.21L374.38 400.66L374.51 408.19L374.55 415.8L374.51 423.41L374.38 430.94L374.16 438.39L373.87 445.75L373.49 453.02L373.04 460.18L372.5 467.23L371.89 474.17L371.21 480.99L370.46 487.68L369.63 494.25L368.73 500.67L367.77 506.96L366.74 513.09L365.65 519.07L364.5 524.88L363.28 530.53L362.01 536L360.68 541.3L359.29 546.41L357.85 551.33L356.36 556.05L354.81 560.57L353.22 564.88L351.58 568.98L349.89 572.85L348.17 576.5L346.39 579.91L344.58 583.09L342.73 586.02L340.85 588.7L338.92 591.12L336.97 593.28L334.98 595.17L332.96 596.79L330.91 598.13L328.84 599.18L326.74 599.93L324.61 600.39L322.47 600.55L320.32 600.39L318.2 599.93L316.1 599.18L314.02 598.13L311.98 596.79L309.96 595.17L307.97 593.28L306.01 591.12L304.09 588.7L302.2 586.02L300.35 583.09L298.54 579.91L296.77 576.5L295.04 572.85L293.36 568.98L291.72 564.88L290.12 560.57L288.58 556.05L287.09 551.33L285.65 546.41L284.26 541.3L282.93 536L281.65 530.53L280.44 524.88L279.28 519.07L278.19 513.09L277.16 506.96L276.2 500.67L275.31 494.25L274.48 487.68L273.72 480.99L273.04 474.17L272.43 467.23L271.9 460.18L271.44 453.02L271.07 445.75L270.77 438.39L270.56 430.94L270.43 423.41L270.38 415.8L270.43 408.19L270.56 400.66L270.77 393.21L271.07 385.85L271.44 378.59L271.9 371.43L272.43 364.37L273.04 357.43L273.72 350.61L274.48 343.92L275.31 337.36L276.2 330.93L277.16 324.65L278.19 318.52L279.28 312.54L280.44 306.72L281.65 301.07L282.93 295.6L284.26 290.3L285.65 285.19L287.09 280.27L288.58 275.55L289.49 272.89L288.98 272.4L288.27 271.67L287.59 270.91L286.94 270.12L286.32 269.31L285.74 268.47L285.18 267.61L284.65 266.73L284.16 265.82L283.71 264.9L283.28 263.95L282.9 262.99L282.55 262.01L282.24 261.01L281.97 259.99L281.73 258.96L281.54 257.92L281.39 256.86L281.28 255.78L281.22 254.7L281.19 253.6L281.19 179.03L281.22 177.93L281.28 176.85L281.39 175.78L281.54 174.72L281.73 173.67L281.97 172.64L282.24 171.62L282.55 170.62L282.9 169.64L283.28 168.68L283.71 167.73L284.16 166.81L284.65 165.91L285.18 165.02L285.74 164.16L286.32 163.33L286.94 162.51L287.44 161.92L287.31 161.72L286.67 160.67L286.08 159.6L285.55 158.49L285.06 157.37L284.63 156.21L284.24 155.04L283.9 153.84L283.6 152.62L283.34 151.39L283.13 150.13L282.96 148.85L282.83 147.56L282.74 146.25L282.69 144.93L282.67 143.6L282.69 142.26L282.74 140.94L282.83 139.63L282.96 138.34L283.13 137.06L283.34 135.81L283.6 134.57L283.9 133.35L284.24 132.15L284.63 130.98L285.06 129.83L285.55 128.7L286.08 127.6L286.67 126.52L287.31 125.47L288 124.45L288.75 123.46L289.55 122.5L290.41 121.57L291.32 120.67L292.3 119.81L293.34 118.98L294.44 118.18L295.6 117.43L296.83 116.71L298.13 116.03L299.49 115.39L300.92 114.79L302.42 114.23L303.99 113.72L305.63 113.25L307.34 112.82L309.13 112.44L311 112.11L312.94 111.83L314.96 111.59L317.06 111.41L319.24 111.28L321.5 111.2L323.84 111.17L326.18 111.2L328.43 111.28Z" id="hiAnzU8bc"></path><path d="M371.34 339.15C371.34 387.96 359.67 427.59 345.3 427.59C330.93 427.59 319.26 387.96 319.26 339.15C319.26 290.34 330.93 250.71 345.3 250.71C359.67 250.71 371.34 290.34 371.34 339.15Z" id="c1ed4u4h1D"></path><path d="M322.47 339.15C322.47 387.96 310.8 427.59 296.43 427.59C282.05 427.59 270.38 387.96 270.38 339.15C270.38 290.34 282.05 250.71 296.43 250.71C310.8 250.71 322.47 290.34 322.47 339.15Z" id="alZdUSSSL"></path><path d="M436.46 81.69L422.21 140.65L365.71 183.89" id="abFtP8SQD"></path><path d="M210.44 81.69L224.69 140.65L281.19 183.89" id="fYZSM1grA"></path><path d="M436.46 229.09L395.19 229.09L365.71 203.54" id="c719XlkfK"></path><path d="M196.68 229.09L245.98 229.09L281.19 199.61" id="e7dsG0d0W5"></path></defs><g><g><g><g><use xlink:href="#a3CyaOXpah" opacity="1" fill-opacity="0" stroke="#000000" stroke-width="5" stroke-opacity="1"></use></g></g><g><g><use xlink:href="#a1TVbc9CWn" opacity="1" fill-opacity="0" stroke="#000000" stroke-width="3" stroke-opacity="1"></use></g></g><g><g><use xlink:href="#a1Eiqc6ZqS" opacity="1" fill-opacity="0" stroke="#000000" stroke-width="5" stroke-opacity="1"></use></g></g><g><g><use xlink:href="#b1jGKs0EJ4" opacity="1" fill-opacity="0" stroke="#000000" stroke-width="3" stroke-opacity="1"></use></g></g><g><use xlink:href="#hiAnzU8bc" opacity="1" fill="#bdb200" fill-opacity="1"></use><g><use xlink:href="#hiAnzU8bc" opacity="1" fill-opacity="0" stroke="#000000" stroke-width="3" stroke-opacity="1"></use></g></g><g><use xlink:href="#c1ed4u4h1D" opacity="1" fill="#ce0b7b" fill-opacity="1"></use><g><use xlink:href="#c1ed4u4h1D" opacity="1" fill-opacity="0" stroke="#000000" stroke-width="3" stroke-opacity="1"></use></g></g><g><use xlink:href="#alZdUSSSL" opacity="1" fill="#ce0b7b" fill-opacity="1"></use><g><use xlink:href="#alZdUSSSL" opacity="1" fill-opacity="0" stroke="#000000" stroke-width="3" stroke-opacity="1"></use></g></g><g><g><use xlink:href="#abFtP8SQD" opacity="1" fill-opacity="0" stroke="#000000" stroke-width="4" stroke-opacity="1"></use></g></g><g><g><use xlink:href="#fYZSM1grA" opacity="1" fill-opacity="0" stroke="#000000" stroke-width="4" stroke-opacity="1"></use></g></g><g><g><use xlink:href="#c719XlkfK" opacity="1" fill-opacity="0" stroke="#000000" stroke-width="4" stroke-opacity="1"></use></g></g><g><g><use xlink:href="#e7dsG0d0W5" opacity="1" fill-opacity="0" stroke="#000000" stroke-width="4" stroke-opacity="1"></use></g></g></g></g></svg>