<?xml version="1.0" encoding="UTF-8" standalone="no"?>
<!DOCTYPE svg PUBLIC "-//W3C//DTD SVG 1.1//EN" "http://www.w3.org/Graphics/SVG/1.1/DTD/svg11.dtd">
<svg version="1.1" xmlns="http://www.w3.org/2000/svg" xmlns:xlink="http://www.w3.org/1999/xlink" preserveAspectRatio="xMidYMid meet" viewBox="0 0 640 640" width="640" height="640"><defs><path d="M392.44 372.44C414.82 372.44 432.97 390.59 432.97 412.97C432.97 449.12 432.97 517.04 432.97 553.19C432.97 575.57 414.82 593.72 392.44 593.72C353.49 593.72 277.19 593.72 238.24 593.72C215.86 593.72 197.72 575.57 197.72 553.19C197.72 517.04 197.72 449.12 197.72 412.97C197.72 390.59 215.86 372.44 238.24 372.44C277.19 372.44 353.49 372.44 392.44 372.44Z" id="e2hl0ba9cN"></path><path d="M628.62 290.26C628.62 442.6 483.34 498.73 313.01 498.73C142.68 498.73 11.38 442.6 11.38 290.26C11.38 137.93 149.67 14.25 320 14.25C490.33 14.25 628.62 137.93 628.62 290.26Z" id="amCQ0qCwb"></path><path d="M442.48 262.03C442.48 339.16 391.62 428.45 312.56 428.45C233.5 428.45 188.21 339.16 188.21 262.03C188.21 184.9 233.5 107.83 312.56 107.83C391.62 107.83 442.48 184.9 442.48 262.03Z" id="a5zv1qojfx"></path><path d="M129.51 281.48C128.05 323.72 111.14 353.57 78.34 352.44C45.55 351.31 29.59 316.43 31.04 274.2C32.5 231.97 50.81 198.27 83.6 199.39C116.4 200.52 130.96 239.25 129.51 281.48Z" id="a3G3CGaA"></path><path d="M508.83 273.7C510.28 315.94 527.2 345.79 559.99 344.66C592.78 343.53 608.74 308.66 607.29 266.42C605.84 224.19 587.53 190.49 554.73 191.61C521.94 192.74 507.38 231.47 508.83 273.7Z" id="g5JlEkNUvT"></path></defs><g><g><g><use xlink:href="#e2hl0ba9cN" opacity="1" fill="#ffffff" fill-opacity="1"></use><g><use xlink:href="#e2hl0ba9cN" opacity="1" fill-opacity="0" stroke="#000000" stroke-width="6" stroke-opacity="1"></use></g></g><g><use xlink:href="#amCQ0qCwb" opacity="1" fill="#ffe3b4" fill-opacity="1"></use><g><use xlink:href="#amCQ0qCwb" opacity="1" fill-opacity="0" stroke="#000000" stroke-width="7" stroke-opacity="1"></use></g></g><g><use xlink:href="#a5zv1qojfx" opacity="1" fill="#ff0000" fill-opacity="1"></use></g><g><use xlink:href="#a3G3CGaA" opacity="1" fill="#ff0000" fill-opacity="1"></use></g><g><use xlink:href="#g5JlEkNUvT" opacity="1" fill="#ff0000" fill-opacity="1"></use></g></g></g></svg>