<?xml version="1.0" encoding="UTF-8" standalone="no"?>
<!DOCTYPE svg PUBLIC "-//W3C//DTD SVG 1.1//EN" "http://www.w3.org/Graphics/SVG/1.1/DTD/svg11.dtd">
<svg version="1.1" xmlns="http://www.w3.org/2000/svg" xmlns:xlink="http://www.w3.org/1999/xlink" preserveAspectRatio="xMidYMid meet" viewBox="0 0 640 640" width="640" height="640"><defs><path d="M392.44 410.22C414.82 410.22 432.97 428.36 432.97 450.75C432.97 486.9 432.97 554.82 432.97 590.97C432.97 613.35 414.82 631.49 392.44 631.49C353.49 631.49 277.19 631.49 238.24 631.49C215.86 631.49 197.72 613.35 197.72 590.97C197.72 554.82 197.72 486.9 197.72 450.75C197.72 428.36 215.86 410.22 238.24 410.22C277.19 410.22 353.49 410.22 392.44 410.22Z" id="b2fKbOCc1g"></path><path d="M628.62 290.26C628.62 442.6 483.34 498.73 313.01 498.73C142.68 498.73 11.38 442.6 11.38 290.26C11.38 137.93 149.67 14.25 320 14.25C490.33 14.25 628.62 137.93 628.62 290.26Z" id="e53XYamZh"></path><path d="M458.59 256.49C458.59 333.62 394.4 396.24 315.34 396.24C236.28 396.24 172.09 333.62 172.09 256.49C172.09 179.36 236.28 116.74 315.34 116.74C394.4 116.74 458.59 179.36 458.59 256.49Z" id="b10QDOb3v9"></path></defs><g><g><g><use xlink:href="#b2fKbOCc1g" opacity="1" fill="#ffffff" fill-opacity="1"></use><g><use xlink:href="#b2fKbOCc1g" opacity="1" fill-opacity="0" stroke="#000000" stroke-width="6" stroke-opacity="1"></use></g></g><g><use xlink:href="#e53XYamZh" opacity="1" fill="#ffffff" fill-opacity="1"></use><g><use xlink:href="#e53XYamZh" opacity="1" fill-opacity="0" stroke="#000000" stroke-width="7" stroke-opacity="1"></use></g></g><g><use xlink:href="#b10QDOb3v9" opacity="1" fill="#ff0000" fill-opacity="1"></use></g></g></g></svg>