<?xml version="1.0" encoding="UTF-8" standalone="no"?>
<!DOCTYPE svg PUBLIC "-//W3C//DTD SVG 1.1//EN" "http://www.w3.org/Graphics/SVG/1.1/DTD/svg11.dtd">
<svg version="1.1" xmlns="http://www.w3.org/2000/svg" xmlns:xlink="http://www.w3.org/1999/xlink" preserveAspectRatio="xMidYMid meet" viewBox="0 0 640 640" width="640" height="640"><defs><path d="M277.33 355.31L275.23 323.09L324.73 375.15L295.27 379.84L271.74 393.22L277.33 355.31Z" id="ca2lbOtvO"></path><path d="M194.79 383.9L257.93 399.12L244.23 418.38L239.92 432.47L194.79 383.9Z" id="quxPbA1sV"></path><path d="M220.98 480.19L238.64 458.18L238.52 435.16L251.53 453.55L268.23 465.96L220.98 480.19Z" id="e36wG4Dune"></path><path d="M454.53 384.32L391.39 399.54L405.08 418.8L409.4 432.89L454.53 384.32Z" id="f4WNZ7BL2d"></path><path d="M428.34 480.61L410.68 458.6L410.8 435.58L397.79 453.97L381.08 466.38L428.34 480.61Z" id="b4JFYfHc"></path><path d="M375.49 355.31L377.59 323.09L328.1 375.15L357.56 379.84L381.08 393.22L375.49 355.31Z" id="d1SNcdv6Y3"></path><path d="M342.04 470.86L343.16 471.18L344.27 471.6L345.34 472.13L346.39 472.77L347.39 473.52L348.35 474.37L349.26 475.33L350.12 476.41L350.93 477.6L351.7 478.9L352.41 480.28L353.06 481.74L353.64 483.26L354.14 484.82L354.57 486.42L354.92 488.04L355.18 489.67L355.34 491.29L355.4 492.9L355.35 494.47L355.19 495.99L354.92 497.45L354.52 498.84L354 500.15L353.34 501.35L352.54 502.44L351.63 503.37L350.66 504.09L349.63 504.62L348.55 504.98L347.43 505.17L346.27 505.2L345.08 505.08L343.88 504.83L342.66 504.46L341.44 503.97L340.22 503.38L339.01 502.7L337.82 501.94L336.66 501.11L335.53 500.22L334.44 499.29L333.4 498.31L332.42 497.32L332.11 496.97L331.7 497.75L331.03 498.84L330.28 499.86L329.47 500.81L328.6 501.68L327.66 502.46L326.67 503.16L325.63 503.76L324.55 504.27L323.42 504.67L322.26 504.96L321.06 505.14L319.84 505.2L318.61 505.14L317.41 504.96L316.25 504.67L315.12 504.27L314.04 503.76L313 503.16L312.01 502.46L311.08 501.68L310.2 500.81L309.39 499.86L308.64 498.84L308.44 498.5L307.6 499.29L306.52 500.22L305.39 501.11L304.22 501.94L303.03 502.7L301.83 503.38L300.61 503.97L299.39 504.46L298.17 504.83L296.96 505.08L295.78 505.2L294.62 505.17L293.49 504.98L292.41 504.62L291.38 504.09L290.41 503.37L289.5 502.44L288.71 501.35L288.05 500.15L287.52 498.84L287.12 497.45L286.85 495.99L286.69 494.47L286.65 492.9L286.71 491.29L286.87 489.67L287.12 488.04L287.47 486.42L287.9 484.82L288.41 483.26L288.99 481.74L289.63 480.28L290.34 478.9L291.11 477.6L291.92 476.41L292.79 475.33L293.69 474.37L294.65 473.52L295.66 472.77L296.7 472.13L297.78 471.6L298.88 471.18L300 470.86L301.14 470.66L302.29 470.56L303.44 470.56L304.58 470.68L305.72 470.9L306.84 471.23L307.94 471.67L309.01 472.22L310.04 472.87L311.04 473.63L311.99 474.5L312.15 474.67L313 474.06L314.04 473.46L315.12 472.96L316.25 472.55L317.41 472.26L318.61 472.08L319.84 472.02L321.06 472.08L322.26 472.26L323.42 472.55L324.55 472.96L325.63 473.46L326.67 474.06L327.66 474.76L328.6 475.55L328.88 475.83L329.15 475.47L330.05 474.5L331 473.63L332 472.87L333.04 472.22L334.11 471.67L335.21 471.23L336.33 470.9L337.46 470.68L338.61 470.56L339.76 470.56L340.9 470.66L342.04 470.86Z" id="a5tWXe6Bgn"></path><path d="M288.72 528.62L286.65 518.48L286.65 511.32L286.65 506.03L288.72 499.98" id="d1I3hburMN"></path><path d="M353.33 526.63L355.4 516.49L355.4 509.33L355.4 504.04L353.33 497.99" id="a1ok9JzxDr"></path><path d="M268.23 562.53L262.08 547.61L257.93 523.65L264.21 500.23L271.74 487.92L288.72 472.99" id="a1mIIglPc"></path><path d="M377.44 562.53L383.59 547.61L387.74 523.65L381.46 500.23L373.93 487.92L356.96 472.99" id="h4TEFxvHt"></path><path d="M233.78 538.53L233.78 519.46L242.31 495.55L253.67 482.98L282.08 470.55" id="a4MmRsXTOR"></path><path d="M415.54 538.53L415.54 519.46L407.01 495.55L395.65 482.98L367.24 470.55" id="elcWA7zDV"></path><path d="M220.98 487.88L230.01 486.18L245.84 478.5L276.97 468.85" id="cqIUKX3DZ"></path><path d="M428.34 487.88L419.31 486.18L403.48 478.5L372.35 468.85" id="a1J7LEmVo"></path><path d="M254.98 303.87L247.16 327.08L244.61 365.22L261.37 396.72" id="c1aBfGKOjV"></path><path d="M372.51 387.94C391.71 395.46 411.76 402.85 411.76 427.06C411.76 451.06 391.42 459.86 372.51 468.02C357.36 474.56 342.4 476.24 321.02 476.24C301.81 476.24 287.74 473.17 273.34 468.02C251.73 460.29 237.69 453.01 237.69 427.06C237.69 406.74 254.64 401.27 268.76 393.16C284.68 384.01 299.27 373.57 324.73 373.57C345.86 373.57 357.43 382.04 372.51 387.94Z" id="aNZytCiA"></path><path d="M392.78 300.36L400.59 323.58L403.15 361.71L386.38 393.22" id="b5n1OdtPD5"></path><path d="M308.94 419.49C308.94 425.32 304.02 430.05 297.97 430.05C291.91 430.05 287 425.32 287 419.49C287 413.66 291.91 408.93 297.97 408.93C304.02 408.93 308.94 413.66 308.94 419.49Z" id="c4cVZPFXDs"></path><path d="M358.59 418.74C358.59 424.57 353.67 429.3 347.62 429.3C341.56 429.3 336.64 424.57 336.64 418.74C336.64 412.91 341.56 408.18 347.62 408.18C353.67 408.18 358.59 412.91 358.59 418.74Z" id="a3xWIHJekJ"></path><path d="M321.02 445.52C321.02 449.97 317.27 453.58 312.64 453.58C308.01 453.58 304.26 449.97 304.26 445.52C304.26 441.06 308.01 437.45 312.64 437.45C317.27 437.45 321.02 441.06 321.02 445.52Z" id="jK98SJCcS"></path><path d="M341.49 445.52C341.49 449.97 337.73 453.58 333.11 453.58C328.48 453.58 324.73 449.97 324.73 445.52C324.73 441.06 328.48 437.45 333.11 437.45C337.73 437.45 341.49 441.06 341.49 445.52Z" id="aDHxS4Wl"></path><path d="M278.66 451.65C278.66 454.98 275.56 457.68 271.74 457.68C267.92 457.68 264.82 454.98 264.82 451.65C264.82 448.33 267.92 445.63 271.74 445.63C275.56 445.63 278.66 448.33 278.66 451.65Z" id="aRJZ6IccB"></path><path d="M298.23 462.83C298.23 466.15 295.13 468.85 291.32 468.85C287.5 468.85 284.4 466.15 284.4 462.83C284.4 459.5 287.5 456.8 291.32 456.8C295.13 456.8 298.23 459.5 298.23 462.83Z" id="gP0eIZodQ"></path><path d="M362.31 459.6C362.31 462.93 359.21 465.63 355.4 465.63C351.58 465.63 348.48 462.93 348.48 459.6C348.48 456.28 351.58 453.58 355.4 453.58C359.21 453.58 362.31 456.28 362.31 459.6Z" id="aQlT9KOB7"></path><path d="M379.26 451.65C379.26 454.98 376.16 457.68 372.35 457.68C368.53 457.68 365.43 454.98 365.43 451.65C365.43 448.33 368.53 445.63 372.35 445.63C376.16 445.63 379.26 448.33 379.26 451.65Z" id="a3EyGwrdPV"></path><path d="M304.26 389.92C304.26 393.25 301.16 395.95 297.34 395.95C293.53 395.95 290.43 393.25 290.43 389.92C290.43 386.6 293.53 383.9 297.34 383.9C301.16 383.9 304.26 386.6 304.26 389.92Z" id="d25EavV8Ob"></path><path d="M322.77 383.9C322.77 387.23 319.67 389.92 315.86 389.92C312.04 389.92 308.94 387.23 308.94 383.9C308.94 380.58 312.04 377.88 315.86 377.88C319.67 377.88 322.77 380.58 322.77 383.9Z" id="aAUVeAUjv"></path><path d="M343.56 383.9C343.56 387.23 340.46 389.92 336.64 389.92C332.83 389.92 329.73 387.23 329.73 383.9C329.73 380.58 332.83 377.88 336.64 377.88C340.46 377.88 343.56 380.58 343.56 383.9Z" id="b4NTnNJUpp"></path><path d="M358.59 393.22C358.59 396.54 355.49 399.24 351.67 399.24C347.86 399.24 344.76 396.54 344.76 393.22C344.76 389.89 347.86 387.19 351.67 387.19C355.49 387.19 358.59 389.89 358.59 393.22Z" id="cdtlwZFun"></path><path d="M324.88 373.57L328.1 0" id="bNuMgU0JN"></path></defs><g><g><g><use xlink:href="#ca2lbOtvO" opacity="1" fill="#d22910" fill-opacity="1"></use><g><use xlink:href="#ca2lbOtvO" opacity="1" fill-opacity="0" stroke="#000000" stroke-width="3" stroke-opacity="1"></use></g></g><g><use xlink:href="#quxPbA1sV" opacity="1" fill="#d22910" fill-opacity="1"></use><g><use xlink:href="#quxPbA1sV" opacity="1" fill-opacity="0" stroke="#040005" stroke-width="3" stroke-opacity="1"></use></g></g><g><use xlink:href="#e36wG4Dune" opacity="1" fill="#d22910" fill-opacity="1"></use><g><use xlink:href="#e36wG4Dune" opacity="1" fill-opacity="0" stroke="#040005" stroke-width="3" stroke-opacity="1"></use></g></g><g><use xlink:href="#f4WNZ7BL2d" opacity="1" fill="#d22910" fill-opacity="1"></use><g><use xlink:href="#f4WNZ7BL2d" opacity="1" fill-opacity="0" stroke="#040005" stroke-width="3" stroke-opacity="1"></use></g></g><g><use xlink:href="#b4JFYfHc" opacity="1" fill="#d22910" fill-opacity="1"></use><g><use xlink:href="#b4JFYfHc" opacity="1" fill-opacity="0" stroke="#040005" stroke-width="3" stroke-opacity="1"></use></g></g><g><use xlink:href="#d1SNcdv6Y3" opacity="1" fill="#d22910" fill-opacity="1"></use><g><use xlink:href="#d1SNcdv6Y3" opacity="1" fill-opacity="0" stroke="#000000" stroke-width="3" stroke-opacity="1"></use></g></g><g><use xlink:href="#a5tWXe6Bgn" opacity="1" fill="#000000" fill-opacity="1"></use></g><g><g><use xlink:href="#d1I3hburMN" opacity="1" fill-opacity="0" stroke="#120115" stroke-width="4" stroke-opacity="1"></use></g></g><g><g><use xlink:href="#a1ok9JzxDr" opacity="1" fill-opacity="0" stroke="#120115" stroke-width="4" stroke-opacity="1"></use></g></g><g><g><use xlink:href="#a1mIIglPc" opacity="1" fill-opacity="0" stroke="#120115" stroke-width="3" stroke-opacity="1"></use></g></g><g><g><use xlink:href="#h4TEFxvHt" opacity="1" fill-opacity="0" stroke="#120115" stroke-width="3" stroke-opacity="1"></use></g></g><g><g><use xlink:href="#a4MmRsXTOR" opacity="1" fill-opacity="0" stroke="#120115" stroke-width="3" stroke-opacity="1"></use></g></g><g><g><use xlink:href="#elcWA7zDV" opacity="1" fill-opacity="0" stroke="#120115" stroke-width="4" stroke-opacity="1"></use></g></g><g><g><use xlink:href="#cqIUKX3DZ" opacity="1" fill-opacity="0" stroke="#120115" stroke-width="3" stroke-opacity="1"></use></g></g><g><g><use xlink:href="#a1J7LEmVo" opacity="1" fill-opacity="0" stroke="#120115" stroke-width="3" stroke-opacity="1"></use></g></g><g><g><use xlink:href="#c1aBfGKOjV" opacity="1" fill-opacity="0" stroke="#120115" stroke-width="3" stroke-opacity="1"></use></g></g><g><use xlink:href="#aNZytCiA" opacity="1" fill="#ffffff" fill-opacity="1"></use><g><use xlink:href="#aNZytCiA" opacity="1" fill-opacity="0" stroke="#000000" stroke-width="3" stroke-opacity="1"></use></g></g><g><g><use xlink:href="#b5n1OdtPD5" opacity="1" fill-opacity="0" stroke="#120115" stroke-width="3" stroke-opacity="1"></use></g></g><g><use xlink:href="#c4cVZPFXDs" opacity="1" fill="#200602" fill-opacity="1"></use></g><g><use xlink:href="#a3xWIHJekJ" opacity="1" fill="#200602" fill-opacity="1"></use></g><g><use xlink:href="#jK98SJCcS" opacity="1" fill="#200602" fill-opacity="1"></use></g><g><use xlink:href="#aDHxS4Wl" opacity="1" fill="#200602" fill-opacity="1"></use></g><g><use xlink:href="#aRJZ6IccB" opacity="1" fill="#200602" fill-opacity="1"></use></g><g><use xlink:href="#gP0eIZodQ" opacity="1" fill="#200602" fill-opacity="1"></use></g><g><use xlink:href="#aQlT9KOB7" opacity="1" fill="#200602" fill-opacity="1"></use></g><g><use xlink:href="#a3EyGwrdPV" opacity="1" fill="#200602" fill-opacity="1"></use></g><g><use xlink:href="#d25EavV8Ob" opacity="1" fill="#200602" fill-opacity="1"></use></g><g><use xlink:href="#aAUVeAUjv" opacity="1" fill="#200602" fill-opacity="1"></use></g><g><use xlink:href="#b4NTnNJUpp" opacity="1" fill="#200602" fill-opacity="1"></use></g><g><use xlink:href="#cdtlwZFun" opacity="1" fill="#200602" fill-opacity="1"></use></g><g><g><use xlink:href="#bNuMgU0JN" opacity="1" fill-opacity="0" stroke="#120115" stroke-width="2" stroke-opacity="1"></use></g></g></g></g></svg>