<?xml version="1.0" encoding="UTF-8" standalone="no"?>
<!DOCTYPE svg PUBLIC "-//W3C//DTD SVG 1.1//EN" "http://www.w3.org/Graphics/SVG/1.1/DTD/svg11.dtd">
<svg version="1.1" xmlns="http://www.w3.org/2000/svg" xmlns:xlink="http://www.w3.org/1999/xlink" preserveAspectRatio="xMidYMid meet" viewBox="0 0 640 640" width="640" height="640"><defs><path d="M454.81 507.1L459.92 585.49L339.5 458.84L411.18 447.41L468.41 414.88L454.81 507.1Z" id="a37Yw6Uwqs"></path><path d="M655.64 437.54L502.01 400.51L535.34 353.66L545.83 319.37L655.64 437.54Z" id="aB8wV3CH"></path><path d="M591.92 203.25L548.96 256.82L549.25 312.82L517.6 268.09L476.94 237.89L591.92 203.25Z" id="d1qOXU3q4j"></path><path d="M23.68 436.51L177.31 399.49L143.98 352.64L133.49 318.35L23.68 436.51Z" id="f78TLihDcn"></path><path d="M87.4 202.23L130.36 255.8L130.07 311.8L161.72 267.07L202.37 236.87L87.4 202.23Z" id="d2CIggOoAe"></path><path d="M215.98 507.1L210.87 585.49L331.29 458.84L259.61 447.41L202.37 414.88L215.98 507.1Z" id="c7uKgdqIh"></path><path d="M355.62 142.7L357 142.93L358.36 143.22L359.7 143.58L361.02 143.99L362.32 144.46L363.6 144.99L364.85 145.58L366.08 146.22L367.28 146.91L368.46 147.66L369.61 148.45L370.73 149.3L371.82 150.2L372.87 151.14L373.9 152.13L374.89 153.16L375.85 154.23L376.77 155.35L377.65 156.51L378.5 157.7L379.14 158.68L379.57 158.27L380.77 157.15L382.01 156.05L383.27 154.97L384.55 153.92L385.86 152.89L387.18 151.9L388.52 150.93L389.88 150.01L391.26 149.12L392.64 148.27L394.03 147.47L395.44 146.72L396.84 146.02L398.25 145.37L399.67 144.78L401.08 144.24L402.49 143.77L403.89 143.37L405.29 143.03L406.69 142.76L408.07 142.56L409.43 142.44L410.79 142.4L412.13 142.44L413.45 142.57L414.75 142.79L416.02 143.09L417.27 143.49L418.5 143.98L419.7 144.58L420.87 145.27L422 146.07L423.1 146.98L424.17 148L425.19 149.13L426.16 150.35L427.05 151.64L427.86 152.99L428.6 154.4L429.26 155.87L429.85 157.39L430.37 158.96L430.82 160.57L431.2 162.22L431.52 163.92L431.77 165.64L431.95 167.4L432.08 169.19L432.14 171L432.14 172.83L432.09 174.68L431.98 176.54L431.81 178.41L431.6 180.29L431.32 182.18L431 184.06L430.63 185.93L430.21 187.81L429.75 189.66L429.24 191.51L428.69 193.34L428.09 195.14L427.46 196.92L426.78 198.68L426.07 200.4L425.33 202.08L424.54 203.73L423.73 205.33L422.88 206.89L422 208.4L421.1 209.86L420.16 211.26L419.2 212.6L418.22 213.87L417.21 215.08L416.18 216.23L415.11 217.31L414.02 218.34L412.9 219.31L411.76 220.21L410.59 221.06L409.41 221.85L408.2 222.58L406.97 223.25L405.73 223.86L404.47 224.42L403.19 224.91L401.91 225.34L400.61 225.72L399.3 226.03L397.99 226.29L396.67 226.49L395.35 226.63L394.02 226.71L392.69 226.73L391.37 226.69L390.04 226.59L388.72 226.43L387.4 226.22L386.09 225.94L384.79 225.61L383.49 225.21L382.21 224.76L380.94 224.25L379.69 223.68L378.45 223.05L377.23 222.36L376.03 221.62L374.85 220.81L373.69 219.95L372.56 219.02L371.45 218.04L370.37 217L370.1 216.72L369.61 217.09L368.46 217.89L367.28 218.63L366.08 219.33L364.85 219.97L363.6 220.55L362.32 221.08L361.02 221.55L359.7 221.97L358.36 222.32L357 222.61L355.62 222.84L354.23 223.01L352.82 223.11L351.39 223.14L349.97 223.11L348.56 223.01L347.16 222.84L345.79 222.61L344.43 222.32L343.09 221.97L341.77 221.55L340.47 221.08L339.19 220.55L337.94 219.97L336.71 219.33L335.51 218.63L334.33 217.89L333.18 217.09L332.06 216.24L330.97 215.35L329.92 214.41L329.4 213.91L328.72 214.74L327.7 215.9L326.65 217L325.57 218.04L324.46 219.02L323.33 219.95L322.17 220.81L320.99 221.62L319.79 222.36L318.57 223.05L317.33 223.68L316.08 224.25L314.81 224.76L313.53 225.21L312.23 225.61L310.93 225.94L309.62 226.22L308.3 226.43L306.98 226.59L305.66 226.69L304.33 226.73L303 226.71L301.67 226.63L300.35 226.49L299.03 226.29L297.72 226.03L296.41 225.72L295.11 225.34L293.83 224.91L292.55 224.42L291.29 223.86L290.05 223.25L288.82 222.58L287.62 221.85L286.43 221.06L285.26 220.21L284.12 219.31L283 218.34L281.91 217.31L280.84 216.23L279.81 215.08L278.8 213.87L277.82 212.6L276.86 211.26L275.92 209.86L275.02 208.4L274.14 206.89L273.29 205.33L272.48 203.73L271.7 202.08L270.95 200.4L270.24 198.68L269.56 196.92L268.93 195.14L268.33 193.34L267.78 191.51L267.27 189.66L266.81 187.81L266.39 185.93L266.02 184.06L265.7 182.18L265.42 180.29L265.21 178.41L265.04 176.54L264.93 174.68L264.88 172.83L264.88 171L264.94 169.19L265.07 167.4L265.26 165.64L265.51 163.92L265.82 162.22L266.2 160.57L266.65 158.96L267.17 157.39L267.76 155.87L268.42 154.4L269.16 152.99L269.97 151.64L270.86 150.35L271.83 149.13L272.85 148L273.92 146.98L275.02 146.07L276.15 145.27L277.32 144.58L278.52 143.98L279.75 143.49L281 143.09L282.28 142.79L283.57 142.57L284.89 142.44L286.23 142.4L287.59 142.44L288.95 142.56L290.34 142.76L291.73 143.03L293.13 143.37L294.53 143.77L295.94 144.24L297.35 144.78L298.77 145.37L300.18 146.02L301.59 146.72L302.99 147.47L304.38 148.27L305.77 149.12L307.14 150.01L308.5 150.93L309.84 151.9L311.16 152.89L312.47 153.92L313.75 154.97L315.01 156.05L316.25 157.15L317.46 158.27L318.63 159.41L319.78 160.56L320.89 161.72L321.53 162.42L321.99 161.51L322.72 160.21L323.48 158.94L324.29 157.7L325.14 156.51L326.02 155.35L326.94 154.23L327.9 153.16L328.89 152.13L329.92 151.14L330.97 150.2L332.06 149.3L333.18 148.45L334.33 147.66L335.51 146.91L336.71 146.22L337.94 145.58L339.19 144.99L340.47 144.46L341.77 143.99L343.09 143.58L344.43 143.22L345.79 142.93L347.16 142.7L348.56 142.54L349.97 142.44L351.39 142.4L352.82 142.44L354.23 142.54L355.62 142.7Z" id="dfRiz0S15"></path><path d="M427.11 85.43L432.15 110.11L432.15 127.53L432.15 140.39L427.11 155.11" id="d2BDaznWM"></path><path d="M269.91 90.27L264.87 114.95L264.87 132.37L264.87 145.23L269.91 159.95" id="bA1x8brsj"></path><path d="M476.94 2.93L491.92 39.23L502.01 97.53L486.73 154.51L468.41 184.46L427.11 220.77" id="b5IJIMeny5"></path><path d="M211.25 2.93L196.28 39.23L186.19 97.53L201.46 154.51L219.78 184.46L261.08 220.77" id="cA5T8kLzt"></path><path d="M560.77 61.32L560.77 107.71L540.03 165.9L512.38 196.47L443.25 226.72" id="d27HnKjDjE"></path><path d="M118.55 61.32L118.55 107.71L139.29 165.9L166.94 196.47L236.07 226.72" id="ccTyeHzb2"></path><path d="M591.92 184.56L569.95 188.69L531.43 207.39L455.68 230.85" id="a2K5N8aVOJ"></path><path d="M87.4 184.56L109.37 188.69L147.89 207.39L223.63 230.85" id="fYAtnN8rF"></path><path d="M509.2 632.26L528.21 575.78L534.43 482.99L493.64 406.34" id="a1CT7Pd0LP"></path><path d="M223.23 427.7C176.52 409.41 127.73 391.44 127.73 332.52C127.73 274.13 177.24 252.72 223.23 232.88C260.11 216.97 296.5 212.88 348.51 212.88C395.26 212.88 429.48 220.34 464.53 232.88C517.1 251.68 551.26 269.39 551.26 332.52C551.26 381.97 510.03 395.28 475.67 415.01C436.94 437.26 401.44 462.68 339.5 462.68C288.07 462.68 259.93 442.07 223.23 427.7Z" id="amBJMqE3T"></path><path d="M173.93 640.79L154.92 584.31L148.7 491.53L189.48 414.88" id="b3SulSQEE6"></path><path d="M377.9 350.95C377.9 336.77 389.87 325.26 404.6 325.26C419.33 325.26 431.29 336.77 431.29 350.95C431.29 365.12 419.33 376.63 404.6 376.63C389.87 376.63 377.9 365.12 377.9 350.95Z" id="chkBlxB2h"></path><path d="M257.11 352.77C257.11 338.6 269.07 327.09 283.8 327.09C298.54 327.09 310.5 338.6 310.5 352.77C310.5 366.95 298.54 378.46 283.8 378.46C269.07 378.46 257.11 366.95 257.11 352.77Z" id="aMYOlFRci"></path><path d="M348.51 287.63C348.51 276.8 357.65 268.01 368.9 268.01C380.16 268.01 389.3 276.8 389.3 287.63C389.3 298.46 380.16 307.25 368.9 307.25C357.65 307.25 348.51 298.46 348.51 287.63Z" id="b5D2D8DZPs"></path><path d="M298.71 287.63C298.71 276.8 307.85 268.01 319.11 268.01C330.36 268.01 339.5 276.8 339.5 287.63C339.5 298.46 330.36 307.25 319.11 307.25C307.85 307.25 298.71 298.46 298.71 287.63Z" id="g2TBI5FpPB"></path><path d="M451.59 272.69C451.59 264.6 459.13 258.04 468.41 258.04C477.7 258.04 485.24 264.6 485.24 272.69C485.24 280.78 477.7 287.34 468.41 287.34C459.13 287.34 451.59 280.78 451.59 272.69Z" id="a2qot2PNY"></path><path d="M403.96 245.51C403.96 237.42 411.5 230.85 420.78 230.85C430.07 230.85 437.61 237.42 437.61 245.51C437.61 253.59 430.07 260.16 420.78 260.16C411.5 260.16 403.96 253.59 403.96 245.51Z" id="d2hGCEGJRw"></path><path d="M248.05 253.35C248.05 245.27 255.59 238.7 264.87 238.7C274.16 238.7 281.7 245.27 281.7 253.35C281.7 261.44 274.16 268.01 264.87 268.01C255.59 268.01 248.05 261.44 248.05 253.35Z" id="cMgY9xBaJ"></path><path d="M206.81 272.69C206.81 264.6 214.35 258.04 223.63 258.04C232.92 258.04 240.46 264.6 240.46 272.69C240.46 280.78 232.92 287.34 223.63 287.34C214.35 287.34 206.81 280.78 206.81 272.69Z" id="bkMpZBaGu"></path><path d="M389.3 422.88C389.3 414.8 396.84 408.23 406.12 408.23C415.41 408.23 422.95 414.8 422.95 422.88C422.95 430.97 415.41 437.54 406.12 437.54C396.84 437.54 389.3 430.97 389.3 422.88Z" id="b5pU2zeN5"></path><path d="M344.25 437.54C344.25 429.45 351.79 422.88 361.08 422.88C370.37 422.88 377.9 429.45 377.9 437.54C377.9 445.62 370.37 452.19 361.08 452.19C351.79 452.19 344.25 445.62 344.25 437.54Z" id="anqOZ4M9F"></path><path d="M293.67 437.54C293.67 429.45 301.21 422.88 310.5 422.88C319.78 422.88 327.32 429.45 327.32 437.54C327.32 445.62 319.78 452.19 310.5 452.19C301.21 452.19 293.67 445.62 293.67 437.54Z" id="adCfGJRqZ"></path><path d="M257.11 414.88C257.11 406.79 264.65 400.22 273.94 400.22C283.22 400.22 290.76 406.79 290.76 414.88C290.76 422.96 283.22 429.53 273.94 429.53C264.65 429.53 257.11 422.96 257.11 414.88Z" id="c1vTg2t2ON"></path></defs><g><g><g><use xlink:href="#a37Yw6Uwqs" opacity="1" fill="#d22910" fill-opacity="1"></use><g><use xlink:href="#a37Yw6Uwqs" opacity="1" fill-opacity="0" stroke="#000000" stroke-width="3" stroke-opacity="1"></use></g></g><g><use xlink:href="#aB8wV3CH" opacity="1" fill="#d22910" fill-opacity="1"></use><g><use xlink:href="#aB8wV3CH" opacity="1" fill-opacity="0" stroke="#040005" stroke-width="3" stroke-opacity="1"></use></g></g><g><use xlink:href="#d1qOXU3q4j" opacity="1" fill="#d22910" fill-opacity="1"></use><g><use xlink:href="#d1qOXU3q4j" opacity="1" fill-opacity="0" stroke="#040005" stroke-width="3" stroke-opacity="1"></use></g></g><g><use xlink:href="#f78TLihDcn" opacity="1" fill="#d22910" fill-opacity="1"></use><g><use xlink:href="#f78TLihDcn" opacity="1" fill-opacity="0" stroke="#040005" stroke-width="3" stroke-opacity="1"></use></g></g><g><use xlink:href="#d2CIggOoAe" opacity="1" fill="#d22910" fill-opacity="1"></use><g><use xlink:href="#d2CIggOoAe" opacity="1" fill-opacity="0" stroke="#040005" stroke-width="3" stroke-opacity="1"></use></g></g><g><use xlink:href="#c7uKgdqIh" opacity="1" fill="#d22910" fill-opacity="1"></use><g><use xlink:href="#c7uKgdqIh" opacity="1" fill-opacity="0" stroke="#000000" stroke-width="3" stroke-opacity="1"></use></g></g><g><use xlink:href="#dfRiz0S15" opacity="1" fill="#000000" fill-opacity="1"></use></g><g><g><use xlink:href="#d2BDaznWM" opacity="1" fill-opacity="0" stroke="#120115" stroke-width="4" stroke-opacity="1"></use></g></g><g><g><use xlink:href="#bA1x8brsj" opacity="1" fill-opacity="0" stroke="#120115" stroke-width="4" stroke-opacity="1"></use></g></g><g><g><use xlink:href="#b5IJIMeny5" opacity="1" fill-opacity="0" stroke="#120115" stroke-width="7" stroke-opacity="1"></use></g></g><g><g><use xlink:href="#cA5T8kLzt" opacity="1" fill-opacity="0" stroke="#120115" stroke-width="7" stroke-opacity="1"></use></g></g><g><g><use xlink:href="#d27HnKjDjE" opacity="1" fill-opacity="0" stroke="#120115" stroke-width="5" stroke-opacity="1"></use></g></g><g><g><use xlink:href="#ccTyeHzb2" opacity="1" fill-opacity="0" stroke="#120115" stroke-width="5" stroke-opacity="1"></use></g></g><g><g><use xlink:href="#a2K5N8aVOJ" opacity="1" fill-opacity="0" stroke="#120115" stroke-width="3" stroke-opacity="1"></use></g></g><g><g><use xlink:href="#fYAtnN8rF" opacity="1" fill-opacity="0" stroke="#120115" stroke-width="3" stroke-opacity="1"></use></g></g><g><g><use xlink:href="#a1CT7Pd0LP" opacity="1" fill-opacity="0" stroke="#120115" stroke-width="5" stroke-opacity="1"></use></g></g><g><use xlink:href="#amBJMqE3T" opacity="1" fill="#ffffff" fill-opacity="1"></use><g><use xlink:href="#amBJMqE3T" opacity="1" fill-opacity="0" stroke="#000000" stroke-width="3" stroke-opacity="1"></use></g></g><g><g><use xlink:href="#b3SulSQEE6" opacity="1" fill-opacity="0" stroke="#120115" stroke-width="5" stroke-opacity="1"></use></g></g><g><use xlink:href="#chkBlxB2h" opacity="1" fill="#200602" fill-opacity="1"></use></g><g><use xlink:href="#aMYOlFRci" opacity="1" fill="#200602" fill-opacity="1"></use></g><g><use xlink:href="#b5D2D8DZPs" opacity="1" fill="#200602" fill-opacity="1"></use></g><g><use xlink:href="#g2TBI5FpPB" opacity="1" fill="#200602" fill-opacity="1"></use></g><g><use xlink:href="#a2qot2PNY" opacity="1" fill="#200602" fill-opacity="1"></use></g><g><use xlink:href="#d2hGCEGJRw" opacity="1" fill="#200602" fill-opacity="1"></use></g><g><use xlink:href="#cMgY9xBaJ" opacity="1" fill="#200602" fill-opacity="1"></use></g><g><use xlink:href="#bkMpZBaGu" opacity="1" fill="#200602" fill-opacity="1"></use></g><g><use xlink:href="#b5pU2zeN5" opacity="1" fill="#200602" fill-opacity="1"></use></g><g><use xlink:href="#anqOZ4M9F" opacity="1" fill="#200602" fill-opacity="1"></use></g><g><use xlink:href="#adCfGJRqZ" opacity="1" fill="#200602" fill-opacity="1"></use></g><g><use xlink:href="#c1vTg2t2ON" opacity="1" fill="#200602" fill-opacity="1"></use></g></g></g></svg>